<svg width="386" height="195" viewBox="0 0 386 195" fill="none" xmlns="http://www.w3.org/2000/svg">
<path d="M21.4508 116.59C19.2508 120.41 16.6408 124.06 14.9508 128.1C11.8308 135.56 8.18076 143.05 6.67076 150.9C3.74076 166.16 13.8708 177.53 29.5008 177.96C48.2008 178.48 66.2408 164.47 70.6308 144.97C72.8908 134.96 73.8708 124.62 74.7708 114.37C75.6008 104.93 76.8908 103.36 86.1008 105.52C122.421 114.03 158.001 110.71 192.541 97.72C206.611 92.43 219.721 84.51 233.141 77.55C236.661 75.73 239.071 74.55 242.461 78.3C244.271 80.3 248.901 81.65 251.251 80.73C253.831 79.71 255.901 75.99 257.041 73.01C259.481 66.58 261.181 59.87 264.221 53.21C263.591 60.21 263.521 66.76 271.611 68.83C277.181 70.25 281.751 68.19 285.041 62.78C285.041 63.75 285.331 64.85 284.991 65.68C283.341 69.65 281.801 73.72 279.691 77.45C273.901 87.69 266.981 88.19 258.521 78.73C256.931 80.59 255.381 82.4 253.831 84.23C247.791 91.36 244.211 91.57 237.401 85.16C236.801 84.59 236.301 83.91 235.351 82.81C231.101 85.53 226.851 88.02 222.841 90.85C202.811 104.97 181.381 116.23 157.441 121.98C132.441 127.99 107.311 127.5 82.1908 122.44C81.5608 122.31 80.9308 122.22 79.7708 122.02C79.0807 125.87 78.5208 129.6 77.7308 133.27C73.6308 152.29 67.0208 170.03 51.9808 183.44C44.2308 190.35 35.4308 194.38 24.8008 193.99C9.44075 193.43 0.0607552 184.68 0.000755203 169.28C-0.0292448 162.08 0.830755 154.47 3.26076 147.76C6.81076 137.99 12.1008 128.84 16.7808 119.49C17.5208 118.01 18.9508 116.87 20.0608 115.57C20.5208 115.91 20.9808 116.25 21.4408 116.6L21.4508 116.59Z" fill="black"/>
<path d="M274.391 176.1C275.381 175.37 276.271 174.41 277.371 173.93C296.111 165.62 309.001 150.55 322.221 135.72C328.261 128.94 335.141 122.82 342.161 117.03C347.971 112.24 355.011 111.29 362.461 113.22C368.331 114.74 371.301 113.37 374.571 108.14C376.821 104.54 378.931 100.85 381.161 97.11C381.831 97.7 382.291 97.98 382.251 98.1C378.911 108.68 373.791 118.29 366.571 126.74C363.921 129.84 360.531 130.97 356.701 129.49C344.541 124.8 335.321 129.99 327.181 138.3C319.031 146.63 311.521 155.6 303.091 163.62C295.271 171.06 285.631 175.44 274.391 176.11V176.1Z" fill="black"/>
<path d="M304.931 59.52C312.951 63.76 315.661 73.42 313.491 80.56C309.221 94.57 299.101 103.27 285.171 103.18C287.811 101.29 289.711 99.85 291.681 98.54C293.611 97.25 295.641 96.12 297.601 94.86C308.401 87.92 308.731 85.38 300.821 75.51C299.771 74.2 299.351 71.57 299.891 69.99C301.101 66.46 303.101 63.2 304.931 59.52Z" fill="black"/>
<path d="M114.841 59.1C118.331 54.72 120.891 51.5 123.601 48.1C127.541 49.39 131.701 51.62 131.371 55.8C131.141 58.8 127.831 63.53 125.361 63.9C122.341 64.35 118.751 61.06 114.831 59.1H114.841Z" fill="black"/>
<path d="M122.721 43.16C126.181 38.88 128.841 35.58 132.451 31.12C135.001 34.07 138.971 36.64 139.161 39.47C139.351 42.23 135.971 47.33 133.631 47.66C130.441 48.1 126.751 45 122.721 43.17V43.16Z" fill="black"/>
<path d="M252.381 11.01C255.901 6.67 258.501 3.47 261.301 0C264.861 1.4 269.111 3.18 268.731 7.33C268.451 10.42 265.491 15.26 263.101 15.67C260.101 16.19 256.471 12.97 252.371 11.01H252.381Z" fill="black"/>
<path d="M141.151 63.22C138.001 60.78 135.291 58.67 132.311 56.36C135.161 52.82 137.751 49.62 141.241 45.29C143.721 47.94 147.391 50.1 148.061 52.96C149.171 57.7 144.981 60.5 141.151 63.22Z" fill="black"/>
<path d="M330.831 92.31C333.151 89.53 334.551 87.9 335.891 86.23C337.131 84.68 338.311 83.09 339.651 81.35C343.461 82.74 347.651 84.7 347.331 88.74C347.081 91.81 344.021 96.64 341.601 97.05C338.591 97.55 334.961 94.31 330.841 92.31H330.831Z" fill="black"/>
<path d="M366.341 66.75C369.721 65.36 372.871 64.45 375.571 62.79C376.741 62.07 377.701 59.74 377.511 58.29C376.891 53.46 380.321 47.51 385.091 46.05C385.281 46.31 385.701 46.7 385.631 46.81C382.691 51.65 382.241 57.28 380.521 62.49C378.731 67.92 372.701 69.43 366.341 66.75Z" fill="black"/>
</svg>
