<?xml version="1.0" standalone="no"?>
<svg xmlns:xlink="http://www.w3.org/1999/xlink" xmlns="http://www.w3.org/2000/svg" id="svg-chart" font-family="Times New Roman" height="176.40625" width="1327" style="font-size: 12pt;"><rect id="table-bkgnd" style="fill: rgb(255, 255, 255); stroke: rgb(51, 51, 51);" width="1327" height="174.40625"/><text x="3" y="15.333333333333334" font-weight="bold" class="column-title" width="32">Col2</text><text x="45" y="15.333333333333334" font-weight="bold" class="column-title" width="32">Col3</text><text x="105.5" y="15.333333333333334" font-weight="bold" class="column-title" width="69">Col4</text><text x="184.5" y="15.333333333333334" font-weight="bold" class="column-title" width="69">Col5</text><text x="263.5" y="15.333333333333334" font-weight="bold" class="column-title" width="69">Col6</text><text x="342.5" y="15.333333333333334" font-weight="bold" class="column-title" width="69">Col7</text><text x="421.5" y="15.333333333333334" font-weight="bold" class="column-title" width="69">Col8</text><text x="500.5" y="15.333333333333334" font-weight="bold" class="column-title" width="69">Col9</text><text x="589.5" y="15.333333333333334" font-weight="bold" class="column-title" width="69">...</text><text x="650.5" y="15.333333333333334" font-weight="bold" class="column-title" width="69">Col244</text><text x="719" y="15.333333333333334" font-weight="bold" class="column-title" width="48">Col245</text><text x="787.5" y="15.333333333333334" font-weight="bold" class="column-title" width="69">Col246</text><text x="866.5" y="15.333333333333334" font-weight="bold" class="column-title" width="69">Col247</text><text x="945.5" y="15.333333333333334" font-weight="bold" class="column-title" width="69">Col248</text><text x="1024.5" y="15.333333333333334" font-weight="bold" class="column-title" width="69">Col249</text><text x="1103.5" y="15.333333333333334" font-weight="bold" class="column-title" width="69">Col250</text><text x="1182.5" y="15.333333333333334" font-weight="bold" class="column-title" width="69">Col251</text><text x="1261.5" y="15.333333333333334" font-weight="bold" class="column-title" width="69">Col252</text><rect width="1325" height="25.734375" x="1" y="20" style="fill: rgb(255, 255, 255);"/><text width="32" x="02" height="25.734375" y="37.15625">1</text><text width="32" x="42" height="25.734375" y="37.15625">100</text><text width="69" x="84" height="25.734375" y="37.15625">101.57048</text><text width="69" x="163" height="25.734375" y="37.15625">100.82292</text><text width="69" x="242" height="25.734375" y="37.15625">101.13314</text><text width="69" x="321" height="25.734375" y="37.15625">101.04155</text><text width="69" x="400" height="25.734375" y="37.15625">100.94601</text><text width="69" x="479" height="25.734375" y="37.15625">102.81023</text><text width="69" x="558" height="25.734375" y="37.15625">101.91303</text><text width="69" x="637" height="25.734375" y="37.15625">101.37433</text><text width="48" x="716" height="25.734375" y="37.15625">...</text><text width="69" x="774" height="25.734375" y="37.15625">121.54662</text><text width="69" x="853" height="25.734375" y="37.15625">122.86229</text><text width="69" x="932" height="25.734375" y="37.15625">121.25722</text><text width="69" x="1011" height="25.734375" y="37.15625">121.43816</text><text width="69" x="1090" height="25.734375" y="37.15625">121.88936</text><text width="69" x="1169" height="25.734375" y="37.15625">121.53686</text><text width="69" x="1248" height="25.734375" y="37.15625">123.15779</text><line x1="0" y1="20" x2="1327" y2="20" style="stroke: rgb(102, 102, 102); stroke-width: 1px;"/><rect width="1325" height="25.734375" x="1" y="45.734375" style="fill: rgb(239, 239, 239);"/><text width="32" x="02" height="25.734375" y="62.890625">2</text><text width="32" x="42" height="25.734375" y="62.890625">100</text><text width="69" x="84" height="25.734375" y="62.890625">100.95045</text><text width="69" x="163" height="25.734375" y="62.890625">101.77306</text><text width="69" x="242" height="25.734375" y="62.890625">98.91229</text><text width="69" x="321" height="25.734375" y="62.890625">97.26043</text><text width="69" x="400" height="25.734375" y="62.890625">97.92143</text><text width="69" x="479" height="25.734375" y="62.890625">96.75568</text><text width="69" x="558" height="25.734375" y="62.890625">95.84722</text><text width="69" x="637" height="25.734375" y="62.890625">95.83678</text><text width="48" x="716" height="25.734375" y="62.890625">...</text><text width="69" x="774" height="25.734375" y="62.890625">88.04231</text><text width="69" x="853" height="25.734375" y="62.890625">88.42465</text><text width="69" x="932" height="25.734375" y="62.890625">88.83818</text><text width="69" x="1011" height="25.734375" y="62.890625">90.29385</text><text width="69" x="1090" height="25.734375" y="62.890625">91.52129</text><text width="69" x="1169" height="25.734375" y="62.890625">90.92779</text><text width="69" x="1248" height="25.734375" y="62.890625">90.74001</text><line x1="0" y1="45.734375" x2="1327" y2="45.734375" style="stroke: rgb(102, 102, 102); stroke-width: 1px;"/><rect width="1325" height="25.734375" x="1" y="71.46875" style="fill: rgb(255, 255, 255);"/><text width="32" x="02" height="25.734375" y="88.625">3</text><text width="32" x="42" height="25.734375" y="88.625">100</text><text width="69" x="84" height="25.734375" y="88.625">98.91681</text><text width="69" x="163" height="25.734375" y="88.625">100.59168</text><text width="69" x="242" height="25.734375" y="88.625">97.35631</text><text width="69" x="321" height="25.734375" y="88.625">99.75945</text><text width="69" x="400" height="25.734375" y="88.625">103.15445</text><text width="69" x="479" height="25.734375" y="88.625">102.56789</text><text width="69" x="558" height="25.734375" y="88.625">100.91615</text><text width="69" x="637" height="25.734375" y="88.625">99.45550</text><text width="48" x="716" height="25.734375" y="88.625">...</text><text width="69" x="774" height="25.734375" y="88.625">131.75364</text><text width="69" x="853" height="25.734375" y="88.625">131.93328</text><text width="69" x="932" height="25.734375" y="88.625">133.13471</text><text width="69" x="1011" height="25.734375" y="88.625">131.23549</text><text width="69" x="1090" height="25.734375" y="88.625">129.93637</text><text width="69" x="1169" height="25.734375" y="88.625">128.04107</text><text width="69" x="1248" height="25.734375" y="88.625">130.04635</text><line x1="0" y1="71.46875" x2="1327" y2="71.46875" style="stroke: rgb(102, 102, 102); stroke-width: 1px;"/><rect width="1325" height="25.734375" x="1" y="97.203125" style="fill: rgb(239, 239, 239);"/><text width="32" x="02" height="25.734375" y="114.359375">4</text><text width="32" x="42" height="25.734375" y="114.359375">100</text><text width="69" x="84" height="25.734375" y="114.359375">95.47044</text><text width="69" x="163" height="25.734375" y="114.359375">93.38859</text><text width="69" x="242" height="25.734375" y="114.359375">93.77215</text><text width="69" x="321" height="25.734375" y="114.359375">93.28740</text><text width="69" x="400" height="25.734375" y="114.359375">92.81718</text><text width="69" x="479" height="25.734375" y="114.359375">92.81593</text><text width="69" x="558" height="25.734375" y="114.359375">93.39456</text><text width="69" x="637" height="25.734375" y="114.359375">94.56262</text><text width="48" x="716" height="25.734375" y="114.359375">...</text><text width="69" x="774" height="25.734375" y="114.359375">122.09428</text><text width="69" x="853" height="25.734375" y="114.359375">120.45907</text><text width="69" x="932" height="25.734375" y="114.359375">124.44749</text><text width="69" x="1011" height="25.734375" y="114.359375">125.52960</text><text width="69" x="1090" height="25.734375" y="114.359375">125.89543</text><text width="69" x="1169" height="25.734375" y="114.359375">126.04202</text><text width="69" x="1248" height="25.734375" y="114.359375">126.94666</text><line x1="0" y1="97.203125" x2="1327" y2="97.203125" style="stroke: rgb(102, 102, 102); stroke-width: 1px;"/><rect width="1325" height="25.734375" x="1" y="122.9375" style="fill: rgb(255, 255, 255);"/><text width="32" x="02" height="25.734375" y="140.09375">5</text><text width="32" x="42" height="25.734375" y="140.09375">100</text><text width="69" x="84" height="25.734375" y="140.09375">100.43439</text><text width="69" x="163" height="25.734375" y="140.09375">101.00353</text><text width="69" x="242" height="25.734375" y="140.09375">99.86845</text><text width="69" x="321" height="25.734375" y="140.09375">100.81410</text><text width="69" x="400" height="25.734375" y="140.09375">97.91577</text><text width="69" x="479" height="25.734375" y="140.09375">98.21483</text><text width="69" x="558" height="25.734375" y="140.09375">100.05009</text><text width="69" x="637" height="25.734375" y="140.09375">98.79548</text><text width="48" x="716" height="25.734375" y="140.09375">...</text><text width="69" x="774" height="25.734375" y="140.09375">119.63437</text><text width="69" x="853" height="25.734375" y="140.09375">116.64085</text><text width="69" x="932" height="25.734375" y="140.09375">117.90523</text><text width="69" x="1011" height="25.734375" y="140.09375">117.75413</text><text width="69" x="1090" height="25.734375" y="140.09375">116.89408</text><text width="69" x="1169" height="25.734375" y="140.09375">115.25831</text><text width="69" x="1248" height="25.734375" y="140.09375">114.53960</text><line x1="0" y1="122.9375" x2="1327" y2="122.9375" style="stroke: rgb(102, 102, 102); stroke-width: 1px;"/><rect width="1325" height="25.734375" x="1" y="148.671875" style="fill: rgb(239, 239, 239);"/><text width="32" x="02" height="25.734375" y="165.828125">6</text><text width="32" x="42" height="25.734375" y="165.828125">100</text><text width="69" x="84" height="25.734375" y="165.828125">99.65448</text><text width="69" x="163" height="25.734375" y="165.828125">100.86948</text><text width="69" x="242" height="25.734375" y="165.828125">104.47456</text><text width="69" x="321" height="25.734375" y="165.828125">103.07941</text><text width="69" x="400" height="25.734375" y="165.828125">100.87789</text><text width="69" x="479" height="25.734375" y="165.828125">102.30603</text><text width="69" x="558" height="25.734375" y="165.828125">105.83009</text><text width="69" x="637" height="25.734375" y="165.828125">105.17449</text><text width="48" x="716" height="25.734375" y="165.828125">...</text><text width="69" x="774" height="25.734375" y="165.828125">71.86867</text><text width="69" x="853" height="25.734375" y="165.828125">72.95307</text><text width="69" x="932" height="25.734375" y="165.828125">72.72687</text><text width="69" x="1011" height="25.734375" y="165.828125">73.52814</text><text width="69" x="1090" height="25.734375" y="165.828125">74.31209</text><text width="69" x="1169" height="25.734375" y="165.828125">75.80734</text><text width="69" x="1248" height="25.734375" y="165.828125">74.17016</text><line x1="0" y1="148.671875" x2="1327" y2="148.671875" style="stroke: rgb(102, 102, 102); stroke-width: 1px;"/><line x1="40" y1="0" x2="40" y2="174.40625" style="stroke: rgb(51, 51, 51); stroke-width: 1px;"/><line x1="82" y1="0" x2="82" y2="174.40625" style="stroke: rgb(51, 51, 51); stroke-width: 1px;"/><line x1="161" y1="0" x2="161" y2="174.40625" style="stroke: rgb(51, 51, 51); stroke-width: 1px;"/><line x1="240" y1="0" x2="240" y2="174.40625" style="stroke: rgb(51, 51, 51); stroke-width: 1px;"/><line x1="319" y1="0" x2="319" y2="174.40625" style="stroke: rgb(51, 51, 51); stroke-width: 1px;"/><line x1="398" y1="0" x2="398" y2="174.40625" style="stroke: rgb(51, 51, 51); stroke-width: 1px;"/><line x1="477" y1="0" x2="477" y2="174.40625" style="stroke: rgb(51, 51, 51); stroke-width: 1px;"/><line x1="556" y1="0" x2="556" y2="174.40625" style="stroke: rgb(51, 51, 51); stroke-width: 1px;"/><line x1="635" y1="0" x2="635" y2="174.40625" style="stroke: rgb(51, 51, 51); stroke-width: 1px;"/><line x1="714" y1="0" x2="714" y2="174.40625" style="stroke: rgb(51, 51, 51); stroke-width: 1px;"/><line x1="772" y1="0" x2="772" y2="174.40625" style="stroke: rgb(51, 51, 51); stroke-width: 1px;"/><line x1="851" y1="0" x2="851" y2="174.40625" style="stroke: rgb(51, 51, 51); stroke-width: 1px;"/><line x1="930" y1="0" x2="930" y2="174.40625" style="stroke: rgb(51, 51, 51); stroke-width: 1px;"/><line x1="1009" y1="0" x2="1009" y2="174.40625" style="stroke: rgb(51, 51, 51); stroke-width: 1px;"/><line x1="1088" y1="0" x2="1088" y2="174.40625" style="stroke: rgb(51, 51, 51); stroke-width: 1px;"/><line x1="1167" y1="0" x2="1167" y2="174.40625" style="stroke: rgb(51, 51, 51); stroke-width: 1px;"/><line x1="1246" y1="0" x2="1246" y2="174.40625" style="stroke: rgb(51, 51, 51); stroke-width: 1px;"/></svg>