<?xml version="1.0" standalone="no"?>
<svg xmlns:xlink="http://www.w3.org/1999/xlink" xmlns="http://www.w3.org/2000/svg" id="svg-chart" font-family="Times New Roman" height="794.03125" width="302" style="font-size: 12pt;"><rect id="table-bkgnd" style="fill: rgb(255, 255, 255); stroke: rgb(51, 51, 51);" width="302" height="792.03125"/><text x="41.48828125" y="15.333333333333334" font-weight="bold" class="column-title" width="141">Standard</text><text x="190.28515625" y="15.333333333333334" font-weight="bold" class="column-title" width="141">Antithetic</text><rect width="300" height="25.734375" x="1" y="20" style="fill: rgb(255, 255, 255);"/><text width="141" x="02" height="25.734375" y="37.15625">0.020</text><text width="141" x="151" height="25.734375" y="37.15625">0.020</text><line x1="0" y1="20" x2="302" y2="20" style="stroke: rgb(102, 102, 102); stroke-width: 1px;"/><rect width="300" height="25.734375" x="1" y="45.734375" style="fill: rgb(239, 239, 239);"/><text width="141" x="02" height="25.734375" y="62.890625">0.0206706573110857</text><text width="141" x="151" height="25.734375" y="62.890625">0.0194055331651048</text><line x1="0" y1="45.734375" x2="302" y2="45.734375" style="stroke: rgb(102, 102, 102); stroke-width: 1px;"/><rect width="300" height="25.734375" x="1" y="71.46875" style="fill: rgb(255, 255, 255);"/><text width="141" x="02" height="25.734375" y="88.625">0.0196656233823181</text><text width="141" x="151" height="25.734375" y="88.625">0.0204866608202518</text><line x1="0" y1="71.46875" x2="302" y2="71.46875" style="stroke: rgb(102, 102, 102); stroke-width: 1px;"/><rect width="300" height="25.734375" x="1" y="97.203125" style="fill: rgb(239, 239, 239);"/><text width="141" x="02" height="25.734375" y="114.359375">0.0175414578641967</text><text width="141" x="151" height="25.734375" y="114.359375">0.0226868234377985</text><line x1="0" y1="97.203125" x2="302" y2="97.203125" style="stroke: rgb(102, 102, 102); stroke-width: 1px;"/><rect width="300" height="25.734375" x="1" y="122.9375" style="fill: rgb(255, 255, 255);"/><text width="141" x="02" height="25.734375" y="140.09375">0.0172152364355199</text><text width="141" x="151" height="25.734375" y="140.09375">0.0230889454616474</text><line x1="0" y1="122.9375" x2="302" y2="122.9375" style="stroke: rgb(102, 102, 102); stroke-width: 1px;"/><rect width="300" height="25.734375" x="1" y="148.671875" style="fill: rgb(239, 239, 239);"/><text width="141" x="02" height="25.734375" y="165.828125">0.0189078131727416</text><text width="141" x="151" height="25.734375" y="165.828125">0.0214721729378896</text><line x1="0" y1="148.671875" x2="302" y2="148.671875" style="stroke: rgb(102, 102, 102); stroke-width: 1px;"/><rect width="300" height="25.734375" x="1" y="174.40625" style="fill: rgb(255, 255, 255);"/><text width="141" x="02" height="25.734375" y="191.5625">0.0200583381348224</text><text width="141" x="151" height="25.734375" y="191.5625">0.0203973559299541</text><line x1="0" y1="174.40625" x2="302" y2="174.40625" style="stroke: rgb(102, 102, 102); stroke-width: 1px;"/><rect width="300" height="25.734375" x="1" y="200.140625" style="fill: rgb(239, 239, 239);"/><text width="141" x="02" height="25.734375" y="217.296875">0.0213236338619668</text><text width="141" x="151" height="25.734375" y="217.296875">0.0192076720198703</text><line x1="0" y1="200.140625" x2="302" y2="200.140625" style="stroke: rgb(102, 102, 102); stroke-width: 1px;"/><rect width="300" height="25.734375" x="1" y="225.875" style="fill: rgb(255, 255, 255);"/><text width="141" x="02" height="25.734375" y="243.03125">0.0208588201259299</text><text width="141" x="151" height="25.734375" y="243.03125">0.0197480015579619</text><line x1="0" y1="225.875" x2="302" y2="225.875" style="stroke: rgb(102, 102, 102); stroke-width: 1px;"/><rect width="300" height="25.734375" x="1" y="251.609375" style="fill: rgb(239, 239, 239);"/><text width="141" x="02" height="25.734375" y="268.765625">0.0198298527300286</text><text width="141" x="151" height="25.734375" y="268.765625">0.020852388862836</text><line x1="0" y1="251.609375" x2="302" y2="251.609375" style="stroke: rgb(102, 102, 102); stroke-width: 1px;"/><rect width="300" height="25.734375" x="1" y="277.34375" style="fill: rgb(255, 255, 255);"/><text width="141" x="02" height="25.734375" y="294.5">0.0233573262918595</text><text width="141" x="151" height="25.734375" y="294.5">0.0174002394386651</text><line x1="0" y1="277.34375" x2="302" y2="277.34375" style="stroke: rgb(102, 102, 102); stroke-width: 1px;"/><rect width="300" height="25.734375" x="1" y="303.078125" style="fill: rgb(239, 239, 239);"/><text width="141" x="02" height="25.734375" y="320.234375">0.0241995780935418</text><text width="141" x="151" height="25.734375" y="320.234375">0.0166332161249440</text><line x1="0" y1="303.078125" x2="302" y2="303.078125" style="stroke: rgb(102, 102, 102); stroke-width: 1px;"/><rect width="300" height="25.734375" x="1" y="328.8125" style="fill: rgb(255, 255, 255);"/><text width="141" x="02" height="25.734375" y="345.96875">0.0233087838809703</text><text width="141" x="151" height="25.734375" y="345.96875">0.0175991432972380</text><line x1="0" y1="328.8125" x2="302" y2="328.8125" style="stroke: rgb(102, 102, 102); stroke-width: 1px;"/><rect width="300" height="25.734375" x="1" y="354.546875" style="fill: rgb(239, 239, 239);"/><text width="141" x="02" height="25.734375" y="371.703125">0.0211311340969053</text><text width="141" x="151" height="25.734375" y="371.703125">0.0198518306340926</text><line x1="0" y1="354.546875" x2="302" y2="354.546875" style="stroke: rgb(102, 102, 102); stroke-width: 1px;"/><rect width="300" height="25.734375" x="1" y="380.28125" style="fill: rgb(255, 255, 255);"/><text width="141" x="02" height="25.734375" y="397.4375">0.0216874066415416</text><text width="141" x="151" height="25.734375" y="397.4375">0.0193705003564646</text><line x1="0" y1="380.28125" x2="302" y2="380.28125" style="stroke: rgb(102, 102, 102); stroke-width: 1px;"/><rect width="300" height="25.734375" x="1" y="406.015625" style="fill: rgb(239, 239, 239);"/><text width="141" x="02" height="25.734375" y="423.171875">0.0209176758452087</text><text width="141" x="151" height="25.734375" y="423.171875">0.0202150782550222</text><line x1="0" y1="406.015625" x2="302" y2="406.015625" style="stroke: rgb(102, 102, 102); stroke-width: 1px;"/><rect width="300" height="25.734375" x="1" y="431.75" style="fill: rgb(255, 255, 255);"/><text width="141" x="02" height="25.734375" y="448.90625">0.0217933446473872</text><text width="141" x="151" height="25.734375" y="448.90625">0.0194141615111291</text><line x1="0" y1="431.75" x2="302" y2="431.75" style="stroke: rgb(102, 102, 102); stroke-width: 1px;"/><rect width="300" height="25.734375" x="1" y="457.484375" style="fill: rgb(239, 239, 239);"/><text width="141" x="02" height="25.734375" y="474.640625">0.0207695598452338</text><text width="141" x="151" height="25.734375" y="474.640625">0.0205126034483194</text><line x1="0" y1="457.484375" x2="302" y2="457.484375" style="stroke: rgb(102, 102, 102); stroke-width: 1px;"/><rect width="300" height="25.734375" x="1" y="483.21875" style="fill: rgb(255, 255, 255);"/><text width="141" x="02" height="25.734375" y="500.375">0.019677280537702</text><text width="141" x="151" height="25.734375" y="500.375">0.0216794450881768</text><line x1="0" y1="483.21875" x2="302" y2="483.21875" style="stroke: rgb(102, 102, 102); stroke-width: 1px;"/><rect width="300" height="25.734375" x="1" y="508.953125" style="fill: rgb(239, 239, 239);"/><text width="141" x="02" height="25.734375" y="526.109375">0.019527088483846</text><text width="141" x="151" height="25.734375" y="526.109375">0.0219041047920317</text><line x1="0" y1="508.953125" x2="302" y2="508.953125" style="stroke: rgb(102, 102, 102); stroke-width: 1px;"/><rect width="300" height="25.734375" x="1" y="534.6875" style="fill: rgb(255, 255, 255);"/><text width="141" x="02" height="25.734375" y="551.84375">0.0211200341999556</text><text width="141" x="151" height="25.734375" y="551.84375">0.0203855321638257</text><line x1="0" y1="534.6875" x2="302" y2="534.6875" style="stroke: rgb(102, 102, 102); stroke-width: 1px;"/><rect width="300" height="25.734375" x="1" y="560.421875" style="fill: rgb(239, 239, 239);"/><text width="141" x="02" height="25.734375" y="577.578125">0.0238691322468012</text><text width="141" x="151" height="25.734375" y="577.578125">0.0177107127628674</text><line x1="0" y1="560.421875" x2="302" y2="560.421875" style="stroke: rgb(102, 102, 102); stroke-width: 1px;"/><rect width="300" height="25.734375" x="1" y="586.15625" style="fill: rgb(255, 255, 255);"/><text width="141" x="02" height="25.734375" y="603.3125">0.0253640742273803</text><text width="141" x="151" height="25.734375" y="603.3125">0.0162899551060855</text><line x1="0" y1="586.15625" x2="302" y2="586.15625" style="stroke: rgb(102, 102, 102); stroke-width: 1px;"/><rect width="300" height="25.734375" x="1" y="611.890625" style="fill: rgb(239, 239, 239);"/><text width="141" x="02" height="25.734375" y="629.046875">0.0251860369512482</text><text width="141" x="151" height="25.734375" y="629.046875">0.0165420825036989</text><line x1="0" y1="611.890625" x2="302" y2="611.890625" style="stroke: rgb(102, 102, 102); stroke-width: 1px;"/><rect width="300" height="25.734375" x="1" y="637.625" style="fill: rgb(255, 255, 255);"/><text width="141" x="02" height="25.734375" y="654.78125">0.023169610332253</text><text width="141" x="151" height="25.734375" y="654.78125">0.0186325051614815</text><line x1="0" y1="637.625" x2="302" y2="637.625" style="stroke: rgb(102, 102, 102); stroke-width: 1px;"/><rect width="300" height="25.734375" x="1" y="663.359375" style="fill: rgb(239, 239, 239);"/><text width="141" x="02" height="25.734375" y="680.515625">0.0212203413777114</text><text width="141" x="151" height="25.734375" y="680.515625">0.0206556761915866</text><line x1="0" y1="663.359375" x2="302" y2="663.359375" style="stroke: rgb(102, 102, 102); stroke-width: 1px;"/><rect width="300" height="25.734375" x="1" y="689.09375" style="fill: rgb(255, 255, 255);"/><text width="141" x="02" height="25.734375" y="706.25">0.0216580272086229</text><text width="141" x="151" height="25.734375" y="706.25">0.0202917985923332</text><line x1="0" y1="689.09375" x2="302" y2="689.09375" style="stroke: rgb(102, 102, 102); stroke-width: 1px;"/><rect width="300" height="25.734375" x="1" y="714.828125" style="fill: rgb(239, 239, 239);"/><text width="141" x="02" height="25.734375" y="731.984375">0.0218683850624833</text><text width="141" x="151" height="25.734375" y="731.984375">0.0201551552453922</text><line x1="0" y1="714.828125" x2="302" y2="714.828125" style="stroke: rgb(102, 102, 102); stroke-width: 1px;"/><rect width="300" height="25.734375" x="1" y="740.5625" style="fill: rgb(255, 255, 255);"/><text width="141" x="02" height="25.734375" y="757.71875">0.0243468817498775</text><text width="141" x="151" height="25.734375" y="757.71875">0.0177502794591943</text><line x1="0" y1="740.5625" x2="302" y2="740.5625" style="stroke: rgb(102, 102, 102); stroke-width: 1px;"/><rect width="300" height="25.734375" x="1" y="766.296875" style="fill: rgb(239, 239, 239);"/><text width="141" x="02" height="25.734375" y="783.453125">0.0237847256794096</text><text width="141" x="151" height="25.734375" y="783.453125">0.0183859629439999</text><line x1="0" y1="766.296875" x2="302" y2="766.296875" style="stroke: rgb(102, 102, 102); stroke-width: 1px;"/><line x1="149" y1="0" x2="149" y2="792.03125" style="stroke: rgb(51, 51, 51); stroke-width: 1px;"/></svg>