<?xml version="1.0" standalone="no"?>
<svg xmlns:xlink="http://www.w3.org/1999/xlink" xmlns="http://www.w3.org/2000/svg" id="svg-chart" font-family="Times New Roman" height="150.671875" width="1787" style="font-size: 12pt;"><rect id="table-bkgnd" style="fill: rgb(255, 255, 255); stroke: rgb(51, 51, 51);" width="1787" height="148.671875"/><text x="3.5" y="15.333333333333334" font-weight="bold" class="column-title" width="29">0.02</text><text x="42.5" y="15.333333333333334" font-weight="bold" class="column-title" width="77">0.01850878</text><text x="129.5" y="15.333333333333334" font-weight="bold" class="column-title" width="77">0.01860420</text><text x="216.5" y="15.333333333333334" font-weight="bold" class="column-title" width="77">0.01775661</text><text x="303.5" y="15.333333333333334" font-weight="bold" class="column-title" width="77">0.01866076</text><text x="390.5" y="15.333333333333334" font-weight="bold" class="column-title" width="77">0.02066862</text><text x="477.5" y="15.333333333333334" font-weight="bold" class="column-title" width="77">0.02185261</text><text x="564.5" y="15.333333333333334" font-weight="bold" class="column-title" width="77">0.02057130</text><text x="651.5" y="15.333333333333334" font-weight="bold" class="column-title" width="77">0.01889174</text><text x="738.5" y="15.333333333333334" font-weight="bold" class="column-title" width="77">0.01749122</text><text x="825.5" y="15.333333333333334" font-weight="bold" class="column-title" width="13">...</text><text x="848.5" y="15.333333333333334" font-weight="bold" class="column-title" width="85">0.015832484</text><text x="943.5" y="15.333333333333334" font-weight="bold" class="column-title" width="85">0.015416829</text><text x="1038.5" y="15.333333333333334" font-weight="bold" class="column-title" width="85">0.017937513</text><text x="1133.5" y="15.333333333333334" font-weight="bold" class="column-title" width="85">0.017590944</text><text x="1228.5" y="15.333333333333334" font-weight="bold" class="column-title" width="85">0.020353480</text><text x="1323.5" y="15.333333333333334" font-weight="bold" class="column-title" width="85">0.019776317</text><text x="1418.5" y="15.333333333333334" font-weight="bold" class="column-title" width="77">0.01939930</text><text x="1505.5" y="15.333333333333334" font-weight="bold" class="column-title" width="85">0.019320951</text><text x="1600.5" y="15.333333333333334" font-weight="bold" class="column-title" width="85">0.019686664</text><text x="1695.5" y="15.333333333333334" font-weight="bold" class="column-title" width="85">0.017911169</text><rect width="1785" height="25.734375" x="1" y="20" style="fill: rgb(255, 255, 255);"/><text width="29" x="02" height="25.734375" y="37.15625">0.02</text><text width="77" x="39" height="25.734375" y="37.15625">0.02005405</text><text width="77" x="126" height="25.734375" y="37.15625">0.02091459</text><text width="77" x="213" height="25.734375" y="37.15625">0.01922444</text><text width="77" x="300" height="25.734375" y="37.15625">0.01836204</text><text width="77" x="387" height="25.734375" y="37.15625">0.02075741</text><text width="77" x="474" height="25.734375" y="37.15625">0.02110693</text><text width="77" x="561" height="25.734375" y="37.15625">0.02298664</text><text width="77" x="648" height="25.734375" y="37.15625">0.02368531</text><text width="77" x="735" height="25.734375" y="37.15625">0.02325478</text><text width="13" x="822" height="25.734375" y="37.15625">...</text><text width="85" x="845" height="25.734375" y="37.15625">0.020534120</text><text width="85" x="940" height="25.734375" y="37.15625">0.019933288</text><text width="85" x="1035" height="25.734375" y="37.15625">0.019375271</text><text width="85" x="1130" height="25.734375" y="37.15625">0.015789645</text><text width="85" x="1225" height="25.734375" y="37.15625">0.014982279</text><text width="85" x="1320" height="25.734375" y="37.15625">0.015297297</text><text width="77" x="1415" height="25.734375" y="37.15625">0.01454952</text><text width="85" x="1502" height="25.734375" y="37.15625">0.013909377</text><text width="85" x="1597" height="25.734375" y="37.15625">0.014254516</text><text width="85" x="1692" height="25.734375" y="37.15625">0.014869407</text><line x1="0" y1="20" x2="1787" y2="20" style="stroke: rgb(102, 102, 102); stroke-width: 1px;"/><rect width="1785" height="25.734375" x="1" y="45.734375" style="fill: rgb(239, 239, 239);"/><text width="29" x="02" height="25.734375" y="62.890625">0.02</text><text width="77" x="39" height="25.734375" y="62.890625">0.01891244</text><text width="77" x="126" height="25.734375" y="62.890625">0.01949255</text><text width="77" x="213" height="25.734375" y="62.890625">0.01534067</text><text width="77" x="300" height="25.734375" y="62.890625">0.01478581</text><text width="77" x="387" height="25.734375" y="62.890625">0.01360507</text><text width="77" x="474" height="25.734375" y="62.890625">0.01339625</text><text width="77" x="561" height="25.734375" y="62.890625">0.01270144</text><text width="77" x="648" height="25.734375" y="62.890625">0.01266854</text><text width="77" x="735" height="25.734375" y="62.890625">0.01151232</text><text width="13" x="822" height="25.734375" y="62.890625">...</text><text width="85" x="845" height="25.734375" y="62.890625">0.011509583</text><text width="85" x="940" height="25.734375" y="62.890625">0.011448955</text><text width="85" x="1035" height="25.734375" y="62.890625">0.008620753</text><text width="85" x="1130" height="25.734375" y="62.890625">0.011288723</text><text width="85" x="1225" height="25.734375" y="62.890625">0.009183835</text><text width="85" x="1320" height="25.734375" y="62.890625">0.010299075</text><text width="77" x="1415" height="25.734375" y="62.890625">0.01050905</text><text width="85" x="1502" height="25.734375" y="62.890625">0.010636900</text><text width="85" x="1597" height="25.734375" y="62.890625">0.009621303</text><text width="85" x="1692" height="25.734375" y="62.890625">0.010029279</text><line x1="0" y1="45.734375" x2="1787" y2="45.734375" style="stroke: rgb(102, 102, 102); stroke-width: 1px;"/><rect width="1785" height="25.734375" x="1" y="71.46875" style="fill: rgb(255, 255, 255);"/><text width="29" x="02" height="25.734375" y="88.625">0.02</text><text width="77" x="39" height="25.734375" y="88.625">0.02116525</text><text width="77" x="126" height="25.734375" y="88.625">0.02270101</text><text width="77" x="213" height="25.734375" y="88.625">0.02155905</text><text width="77" x="300" height="25.734375" y="88.625">0.02082806</text><text width="77" x="387" height="25.734375" y="88.625">0.02284213</text><text width="77" x="474" height="25.734375" y="88.625">0.02442811</text><text width="77" x="561" height="25.734375" y="88.625">0.02487683</text><text width="77" x="648" height="25.734375" y="88.625">0.02425559</text><text width="77" x="735" height="25.734375" y="88.625">0.02446049</text><text width="13" x="822" height="25.734375" y="88.625">...</text><text width="85" x="845" height="25.734375" y="88.625">0.027104518</text><text width="85" x="940" height="25.734375" y="88.625">0.028780753</text><text width="85" x="1035" height="25.734375" y="88.625">0.029798538</text><text width="85" x="1130" height="25.734375" y="88.625">0.031745870</text><text width="85" x="1225" height="25.734375" y="88.625">0.032635147</text><text width="85" x="1320" height="25.734375" y="88.625">0.033150463</text><text width="77" x="1415" height="25.734375" y="88.625">0.03230171</text><text width="85" x="1502" height="25.734375" y="88.625">0.034166226</text><text width="85" x="1597" height="25.734375" y="88.625">0.034171567</text><text width="85" x="1692" height="25.734375" y="88.625">0.032769357</text><line x1="0" y1="71.46875" x2="1787" y2="71.46875" style="stroke: rgb(102, 102, 102); stroke-width: 1px;"/><rect width="1785" height="25.734375" x="1" y="97.203125" style="fill: rgb(239, 239, 239);"/><text width="29" x="02" height="25.734375" y="114.359375">0.02</text><text width="77" x="39" height="25.734375" y="114.359375">0.01964165</text><text width="77" x="126" height="25.734375" y="114.359375">0.01860828</text><text width="77" x="213" height="25.734375" y="114.359375">0.01694245</text><text width="77" x="300" height="25.734375" y="114.359375">0.01767143</text><text width="77" x="387" height="25.734375" y="114.359375">0.01750638</text><text width="77" x="474" height="25.734375" y="114.359375">0.01662601</text><text width="77" x="561" height="25.734375" y="114.359375">0.01476853</text><text width="77" x="648" height="25.734375" y="114.359375">0.01421870</text><text width="77" x="735" height="25.734375" y="114.359375">0.01164450</text><text width="13" x="822" height="25.734375" y="114.359375">...</text><text width="85" x="845" height="25.734375" y="114.359375">0.008993036</text><text width="85" x="940" height="25.734375" y="114.359375">0.009276447</text><text width="85" x="1035" height="25.734375" y="114.359375">0.007933114</text><text width="85" x="1130" height="25.734375" y="114.359375">0.004708498</text><text width="85" x="1225" height="25.734375" y="114.359375">0.005289628</text><text width="85" x="1320" height="25.734375" y="114.359375">0.004816051</text><text width="77" x="1415" height="25.734375" y="114.359375">0.00546954</text><text width="85" x="1502" height="25.734375" y="114.359375">0.006521563</text><text width="85" x="1597" height="25.734375" y="114.359375">0.005686485</text><text width="85" x="1692" height="25.734375" y="114.359375">0.005340546</text><line x1="0" y1="97.203125" x2="1787" y2="97.203125" style="stroke: rgb(102, 102, 102); stroke-width: 1px;"/><rect width="1785" height="25.734375" x="1" y="122.9375" style="fill: rgb(255, 255, 255);"/><text width="29" x="02" height="25.734375" y="140.09375">0.02</text><text width="77" x="39" height="25.734375" y="140.09375">0.02020857</text><text width="77" x="126" height="25.734375" y="140.09375">0.01885825</text><text width="77" x="213" height="25.734375" y="140.09375">0.01786668</text><text width="77" x="300" height="25.734375" y="140.09375">0.01804736</text><text width="77" x="387" height="25.734375" y="140.09375">0.01565743</text><text width="77" x="474" height="25.734375" y="140.09375">0.01812044</text><text width="77" x="561" height="25.734375" y="140.09375">0.01743514</text><text width="77" x="648" height="25.734375" y="140.09375">0.01987280</text><text width="77" x="735" height="25.734375" y="140.09375">0.02066502</text><text width="13" x="822" height="25.734375" y="140.09375">...</text><text width="85" x="845" height="25.734375" y="140.09375">0.022395521</text><text width="85" x="940" height="25.734375" y="140.09375">0.023611784</text><text width="85" x="1035" height="25.734375" y="140.09375">0.022418663</text><text width="85" x="1130" height="25.734375" y="140.09375">0.023756842</text><text width="85" x="1225" height="25.734375" y="140.09375">0.024175421</text><text width="85" x="1320" height="25.734375" y="140.09375">0.025243156</text><text width="77" x="1415" height="25.734375" y="140.09375">0.02726638</text><text width="85" x="1502" height="25.734375" y="140.09375">0.026670779</text><text width="85" x="1597" height="25.734375" y="140.09375">0.029454215</text><text width="85" x="1692" height="25.734375" y="140.09375">0.030727626</text><line x1="0" y1="122.9375" x2="1787" y2="122.9375" style="stroke: rgb(102, 102, 102); stroke-width: 1px;"/><line x1="37" y1="0" x2="37" y2="148.671875" style="stroke: rgb(51, 51, 51); stroke-width: 1px;"/><line x1="124" y1="0" x2="124" y2="148.671875" style="stroke: rgb(51, 51, 51); stroke-width: 1px;"/><line x1="211" y1="0" x2="211" y2="148.671875" style="stroke: rgb(51, 51, 51); stroke-width: 1px;"/><line x1="298" y1="0" x2="298" y2="148.671875" style="stroke: rgb(51, 51, 51); stroke-width: 1px;"/><line x1="385" y1="0" x2="385" y2="148.671875" style="stroke: rgb(51, 51, 51); stroke-width: 1px;"/><line x1="472" y1="0" x2="472" y2="148.671875" style="stroke: rgb(51, 51, 51); stroke-width: 1px;"/><line x1="559" y1="0" x2="559" y2="148.671875" style="stroke: rgb(51, 51, 51); stroke-width: 1px;"/><line x1="646" y1="0" x2="646" y2="148.671875" style="stroke: rgb(51, 51, 51); stroke-width: 1px;"/><line x1="733" y1="0" x2="733" y2="148.671875" style="stroke: rgb(51, 51, 51); stroke-width: 1px;"/><line x1="820" y1="0" x2="820" y2="148.671875" style="stroke: rgb(51, 51, 51); stroke-width: 1px;"/><line x1="843" y1="0" x2="843" y2="148.671875" style="stroke: rgb(51, 51, 51); stroke-width: 1px;"/><line x1="938" y1="0" x2="938" y2="148.671875" style="stroke: rgb(51, 51, 51); stroke-width: 1px;"/><line x1="1033" y1="0" x2="1033" y2="148.671875" style="stroke: rgb(51, 51, 51); stroke-width: 1px;"/><line x1="1128" y1="0" x2="1128" y2="148.671875" style="stroke: rgb(51, 51, 51); stroke-width: 1px;"/><line x1="1223" y1="0" x2="1223" y2="148.671875" style="stroke: rgb(51, 51, 51); stroke-width: 1px;"/><line x1="1318" y1="0" x2="1318" y2="148.671875" style="stroke: rgb(51, 51, 51); stroke-width: 1px;"/><line x1="1413" y1="0" x2="1413" y2="148.671875" style="stroke: rgb(51, 51, 51); stroke-width: 1px;"/><line x1="1500" y1="0" x2="1500" y2="148.671875" style="stroke: rgb(51, 51, 51); stroke-width: 1px;"/><line x1="1595" y1="0" x2="1595" y2="148.671875" style="stroke: rgb(51, 51, 51); stroke-width: 1px;"/><line x1="1690" y1="0" x2="1690" y2="148.671875" style="stroke: rgb(51, 51, 51); stroke-width: 1px;"/></svg>