<?xml version="1.0" standalone="no"?>
<svg xmlns:xlink="http://www.w3.org/1999/xlink" xmlns="http://www.w3.org/2000/svg" id="svg-chart" font-family="Times New Roman" height="47.734375" width="950" style="font-size: 12pt;"><rect id="table-bkgnd" style="fill: rgb(255, 255, 255); stroke: rgb(51, 51, 51);" width="950" height="45.734375"/><text x="41.5" y="15.333333333333334" font-weight="bold" class="column-title" width="85">1</text><text x="136.5" y="15.333333333333334" font-weight="bold" class="column-title" width="85">2</text><text x="231.5" y="15.333333333333334" font-weight="bold" class="column-title" width="85">3</text><text x="326.5" y="15.333333333333334" font-weight="bold" class="column-title" width="85">4</text><text x="421.5" y="15.333333333333334" font-weight="bold" class="column-title" width="85">5</text><text x="516.5" y="15.333333333333334" font-weight="bold" class="column-title" width="85">6</text><text x="611.5" y="15.333333333333334" font-weight="bold" class="column-title" width="85">7</text><text x="706.5" y="15.333333333333334" font-weight="bold" class="column-title" width="85">8</text><text x="801.5" y="15.333333333333334" font-weight="bold" class="column-title" width="85">9</text><text x="892.5" y="15.333333333333334" font-weight="bold" class="column-title" width="85">10</text><rect width="948" height="25.734375" x="1" y="20" style="fill: rgb(255, 255, 255);"/><text width="85" x="02" height="25.734375" y="37.15625">38.44855120</text><text width="85" x="95" height="25.734375" y="37.15625">73.64314742</text><text width="85" x="190" height="25.734375" y="37.15625">43.87762038</text><text width="85" x="285" height="25.734375" y="37.15625">35.96351195</text><text width="85" x="380" height="25.734375" y="37.15625">24.58239001</text><text width="85" x="475" height="25.734375" y="37.15625">22.73777146</text><text width="85" x="570" height="25.734375" y="37.15625">49.19987099</text><text width="85" x="665" height="25.734375" y="37.15625">24.22057781</text><text width="85" x="760" height="25.734375" y="37.15625">59.92817548</text><text width="85" x="855" height="25.734375" y="37.15625">11.58569727</text><line x1="93" y1="0" x2="93" y2="45.734375" style="stroke: rgb(51, 51, 51); stroke-width: 1px;"/><line x1="188" y1="0" x2="188" y2="45.734375" style="stroke: rgb(51, 51, 51); stroke-width: 1px;"/><line x1="283" y1="0" x2="283" y2="45.734375" style="stroke: rgb(51, 51, 51); stroke-width: 1px;"/><line x1="378" y1="0" x2="378" y2="45.734375" style="stroke: rgb(51, 51, 51); stroke-width: 1px;"/><line x1="473" y1="0" x2="473" y2="45.734375" style="stroke: rgb(51, 51, 51); stroke-width: 1px;"/><line x1="568" y1="0" x2="568" y2="45.734375" style="stroke: rgb(51, 51, 51); stroke-width: 1px;"/><line x1="663" y1="0" x2="663" y2="45.734375" style="stroke: rgb(51, 51, 51); stroke-width: 1px;"/><line x1="758" y1="0" x2="758" y2="45.734375" style="stroke: rgb(51, 51, 51); stroke-width: 1px;"/><line x1="853" y1="0" x2="853" y2="45.734375" style="stroke: rgb(51, 51, 51); stroke-width: 1px;"/></svg>