<?xml version="1.0" standalone="no"?>
<svg xmlns:xlink="http://www.w3.org/1999/xlink" xmlns="http://www.w3.org/2000/svg" id="svg-chart" font-family="Times New Roman" height="124.9375" width="178" style="font-size: 12pt;"><rect id="table-bkgnd" style="fill: rgb(255, 255, 255); stroke: rgb(51, 51, 51);" width="178" height="122.9375"/><text x="7.296875" y="15.333333333333334" font-weight="bold" class="column-title" width="117">estimated_price</text><text x="136.5" y="15.333333333333334" font-weight="bold" class="column-title" width="41">20.9</text><rect width="176" height="25.734375" x="1" y="20" style="fill: rgb(255, 255, 255);"/><text width="117" x="02" height="25.734375" y="37.15625">standard_error</text><text width="41" x="127" height="25.734375" y="37.15625">0.187</text><line x1="0" y1="20" x2="178" y2="20" style="stroke: rgb(102, 102, 102); stroke-width: 1px;"/><rect width="176" height="25.734375" x="1" y="45.734375" style="fill: rgb(239, 239, 239);"/><text width="117" x="02" height="25.734375" y="62.890625">ci_lower</text><text width="41" x="127" height="25.734375" y="62.890625">20.6</text><line x1="0" y1="45.734375" x2="178" y2="45.734375" style="stroke: rgb(102, 102, 102); stroke-width: 1px;"/><rect width="176" height="25.734375" x="1" y="71.46875" style="fill: rgb(255, 255, 255);"/><text width="117" x="02" height="25.734375" y="88.625">ci_upper</text><text width="41" x="127" height="25.734375" y="88.625">21.3</text><line x1="0" y1="71.46875" x2="178" y2="71.46875" style="stroke: rgb(102, 102, 102); stroke-width: 1px;"/><rect width="176" height="25.734375" x="1" y="97.203125" style="fill: rgb(239, 239, 239);"/><text width="117" x="02" height="25.734375" y="114.359375">simulation_length</text><text width="41" x="127" height="25.734375" y="114.359375">10000</text><line x1="0" y1="97.203125" x2="178" y2="97.203125" style="stroke: rgb(102, 102, 102); stroke-width: 1px;"/><line x1="125" y1="0" x2="125" y2="122.9375" style="stroke: rgb(51, 51, 51); stroke-width: 1px;"/></svg>