<?xml version="1.0" standalone="no"?>
<svg xmlns:xlink="http://www.w3.org/1999/xlink" xmlns="http://www.w3.org/2000/svg" id="svg-chart" font-family="Times New Roman" height="794.03125" width="302" style="font-size: 12pt;"><rect id="table-bkgnd" style="fill: rgb(255, 255, 255); stroke: rgb(51, 51, 51);" width="302" height="792.03125"/><text x="41.48828125" y="15.333333333333334" font-weight="bold" class="column-title" width="141">Standard</text><text x="190.28515625" y="15.333333333333334" font-weight="bold" class="column-title" width="141">Antithetic</text><rect width="300" height="25.734375" x="1" y="20" style="fill: rgb(255, 255, 255);"/><text width="141" x="02" height="25.734375" y="37.15625">0.02</text><text width="141" x="151" height="25.734375" y="37.15625">0.02</text><line x1="0" y1="20" x2="302" y2="20" style="stroke: rgb(102, 102, 102); stroke-width: 1px;"/><rect width="300" height="25.734375" x="1" y="45.734375" style="fill: rgb(239, 239, 239);"/><text width="141" x="02" height="25.734375" y="62.890625">0.0177136154348337</text><text width="141" x="151" height="25.734375" y="62.890625">0.0223625750413567</text><line x1="0" y1="45.734375" x2="302" y2="45.734375" style="stroke: rgb(102, 102, 102); stroke-width: 1px;"/><rect width="300" height="25.734375" x="1" y="71.46875" style="fill: rgb(255, 255, 255);"/><text width="141" x="02" height="25.734375" y="88.625">0.0177017164484316</text><text width="141" x="151" height="25.734375" y="88.625">0.0224505677541383</text><line x1="0" y1="71.46875" x2="302" y2="71.46875" style="stroke: rgb(102, 102, 102); stroke-width: 1px;"/><rect width="300" height="25.734375" x="1" y="97.203125" style="fill: rgb(239, 239, 239);"/><text width="141" x="02" height="25.734375" y="114.359375">0.0186869730459625</text><text width="141" x="151" height="25.734375" y="114.359375">0.0215413082560327</text><line x1="0" y1="97.203125" x2="302" y2="97.203125" style="stroke: rgb(102, 102, 102); stroke-width: 1px;"/><rect width="300" height="25.734375" x="1" y="122.9375" style="fill: rgb(255, 255, 255);"/><text width="141" x="02" height="25.734375" y="140.09375">0.0201660095014459</text><text width="141" x="151" height="25.734375" y="140.09375">0.0201381723957214</text><line x1="0" y1="122.9375" x2="302" y2="122.9375" style="stroke: rgb(102, 102, 102); stroke-width: 1px;"/><rect width="300" height="25.734375" x="1" y="148.671875" style="fill: rgb(239, 239, 239);"/><text width="141" x="02" height="25.734375" y="165.828125">0.0189567308335079</text><text width="141" x="151" height="25.734375" y="165.828125">0.0214232552771233</text><line x1="0" y1="148.671875" x2="302" y2="148.671875" style="stroke: rgb(102, 102, 102); stroke-width: 1px;"/><rect width="300" height="25.734375" x="1" y="174.40625" style="fill: rgb(255, 255, 255);"/><text width="141" x="02" height="25.734375" y="191.5625">0.0194838518611359</text><text width="141" x="151" height="25.734375" y="191.5625">0.0209718422036405</text><line x1="0" y1="174.40625" x2="302" y2="174.40625" style="stroke: rgb(102, 102, 102); stroke-width: 1px;"/><rect width="300" height="25.734375" x="1" y="200.140625" style="fill: rgb(239, 239, 239);"/><text width="141" x="02" height="25.734375" y="217.296875">0.0186274156277729</text><text width="141" x="151" height="25.734375" y="217.296875">0.0219038902540641</text><line x1="0" y1="200.140625" x2="302" y2="200.140625" style="stroke: rgb(102, 102, 102); stroke-width: 1px;"/><rect width="300" height="25.734375" x="1" y="225.875" style="fill: rgb(255, 255, 255);"/><text width="141" x="02" height="25.734375" y="243.03125">0.0198392303740307</text><text width="141" x="151" height="25.734375" y="243.03125">0.0207675913098612</text><line x1="0" y1="225.875" x2="302" y2="225.875" style="stroke: rgb(102, 102, 102); stroke-width: 1px;"/><rect width="300" height="25.734375" x="1" y="251.609375" style="fill: rgb(239, 239, 239);"/><text width="141" x="02" height="25.734375" y="268.765625">0.0183112833939713</text><text width="141" x="151" height="25.734375" y="268.765625">0.0223709581988934</text><line x1="0" y1="251.609375" x2="302" y2="251.609375" style="stroke: rgb(102, 102, 102); stroke-width: 1px;"/><rect width="300" height="25.734375" x="1" y="277.34375" style="fill: rgb(255, 255, 255);"/><text width="141" x="02" height="25.734375" y="294.5">0.0212796071853989</text><text width="141" x="151" height="25.734375" y="294.5">0.0194779585451256</text><line x1="0" y1="277.34375" x2="302" y2="277.34375" style="stroke: rgb(102, 102, 102); stroke-width: 1px;"/><rect width="300" height="25.734375" x="1" y="303.078125" style="fill: rgb(239, 239, 239);"/><text width="141" x="02" height="25.734375" y="320.234375">0.0202529458534343</text><text width="141" x="151" height="25.734375" y="320.234375">0.0205798483650515</text><line x1="0" y1="303.078125" x2="302" y2="303.078125" style="stroke: rgb(102, 102, 102); stroke-width: 1px;"/><rect width="300" height="25.734375" x="1" y="328.8125" style="fill: rgb(255, 255, 255);"/><text width="141" x="02" height="25.734375" y="345.96875">0.021521689173357</text><text width="141" x="151" height="25.734375" y="345.96875">0.0193862380048513</text><line x1="0" y1="328.8125" x2="302" y2="328.8125" style="stroke: rgb(102, 102, 102); stroke-width: 1px;"/><rect width="300" height="25.734375" x="1" y="354.546875" style="fill: rgb(239, 239, 239);"/><text width="141" x="02" height="25.734375" y="371.703125">0.0202494697925124</text><text width="141" x="151" height="25.734375" y="371.703125">0.0207334949384855</text><line x1="0" y1="354.546875" x2="302" y2="354.546875" style="stroke: rgb(102, 102, 102); stroke-width: 1px;"/><rect width="300" height="25.734375" x="1" y="380.28125" style="fill: rgb(255, 255, 255);"/><text width="141" x="02" height="25.734375" y="397.4375">0.019135174848483</text><text width="141" x="151" height="25.734375" y="397.4375">0.0219227321495232</text><line x1="0" y1="380.28125" x2="302" y2="380.28125" style="stroke: rgb(102, 102, 102); stroke-width: 1px;"/><rect width="300" height="25.734375" x="1" y="406.015625" style="fill: rgb(239, 239, 239);"/><text width="141" x="02" height="25.734375" y="423.171875">0.0182870204698903</text><text width="141" x="151" height="25.734375" y="423.171875">0.0228457336303406</text><line x1="0" y1="406.015625" x2="302" y2="406.015625" style="stroke: rgb(102, 102, 102); stroke-width: 1px;"/><rect width="300" height="25.734375" x="1" y="431.75" style="fill: rgb(255, 255, 255);"/><text width="141" x="02" height="25.734375" y="448.90625">0.0200172978791853</text><text width="141" x="151" height="25.734375" y="448.90625">0.021190208279331</text><line x1="0" y1="431.75" x2="302" y2="431.75" style="stroke: rgb(102, 102, 102); stroke-width: 1px;"/><rect width="300" height="25.734375" x="1" y="457.484375" style="fill: rgb(239, 239, 239);"/><text width="141" x="02" height="25.734375" y="474.640625">0.020173429870672</text><text width="141" x="151" height="25.734375" y="474.640625">0.0211087334228811</text><line x1="0" y1="457.484375" x2="302" y2="457.484375" style="stroke: rgb(102, 102, 102); stroke-width: 1px;"/><rect width="300" height="25.734375" x="1" y="483.21875" style="fill: rgb(255, 255, 255);"/><text width="141" x="02" height="25.734375" y="500.375">0.0172583798847043</text><text width="141" x="151" height="25.734375" y="500.375">0.0240983457411745</text><line x1="0" y1="483.21875" x2="302" y2="483.21875" style="stroke: rgb(102, 102, 102); stroke-width: 1px;"/><rect width="300" height="25.734375" x="1" y="508.953125" style="fill: rgb(239, 239, 239);"/><text width="141" x="02" height="25.734375" y="526.109375">0.0187464865127746</text><text width="141" x="151" height="25.734375" y="526.109375">0.022684706763103</text><line x1="0" y1="508.953125" x2="302" y2="508.953125" style="stroke: rgb(102, 102, 102); stroke-width: 1px;"/><rect width="300" height="25.734375" x="1" y="534.6875" style="fill: rgb(255, 255, 255);"/><text width="141" x="02" height="25.734375" y="551.84375">0.0186464090136308</text><text width="141" x="151" height="25.734375" y="551.84375">0.0228591573501505</text><line x1="0" y1="534.6875" x2="302" y2="534.6875" style="stroke: rgb(102, 102, 102); stroke-width: 1px;"/><rect width="300" height="25.734375" x="1" y="560.421875" style="fill: rgb(239, 239, 239);"/><text width="141" x="02" height="25.734375" y="577.578125">0.02046184913756</text><text width="141" x="151" height="25.734375" y="577.578125">0.0211179958721086</text><line x1="0" y1="560.421875" x2="302" y2="560.421875" style="stroke: rgb(102, 102, 102); stroke-width: 1px;"/><rect width="300" height="25.734375" x="1" y="586.15625" style="fill: rgb(255, 255, 255);"/><text width="141" x="02" height="25.734375" y="603.3125">0.0193004513818051</text><text width="141" x="151" height="25.734375" y="603.3125">0.0223535779516607</text><line x1="0" y1="586.15625" x2="302" y2="586.15625" style="stroke: rgb(102, 102, 102); stroke-width: 1px;"/><rect width="300" height="25.734375" x="1" y="611.890625" style="fill: rgb(239, 239, 239);"/><text width="141" x="02" height="25.734375" y="629.046875">0.0196560837065224</text><text width="141" x="151" height="25.734375" y="629.046875">0.0220720357484248</text><line x1="0" y1="611.890625" x2="302" y2="611.890625" style="stroke: rgb(102, 102, 102); stroke-width: 1px;"/><rect width="300" height="25.734375" x="1" y="637.625" style="fill: rgb(255, 255, 255);"/><text width="141" x="02" height="25.734375" y="654.78125">0.0183539204091077</text><text width="141" x="151" height="25.734375" y="654.78125">0.0234481950846268</text><line x1="0" y1="637.625" x2="302" y2="637.625" style="stroke: rgb(102, 102, 102); stroke-width: 1px;"/><rect width="300" height="25.734375" x="1" y="663.359375" style="fill: rgb(239, 239, 239);"/><text width="141" x="02" height="25.734375" y="680.515625">0.018127710926586</text><text width="141" x="151" height="25.734375" y="680.515625">0.023748306642712</text><line x1="0" y1="663.359375" x2="302" y2="663.359375" style="stroke: rgb(102, 102, 102); stroke-width: 1px;"/><rect width="300" height="25.734375" x="1" y="689.09375" style="fill: rgb(255, 255, 255);"/><text width="141" x="02" height="25.734375" y="706.25">0.0170902721284438</text><text width="141" x="151" height="25.734375" y="706.25">0.0248595536725122</text><line x1="0" y1="689.09375" x2="302" y2="689.09375" style="stroke: rgb(102, 102, 102); stroke-width: 1px;"/><rect width="300" height="25.734375" x="1" y="714.828125" style="fill: rgb(239, 239, 239);"/><text width="141" x="02" height="25.734375" y="731.984375">0.0164973812347047</text><text width="141" x="151" height="25.734375" y="731.984375">0.0255261590731708</text><line x1="0" y1="714.828125" x2="302" y2="714.828125" style="stroke: rgb(102, 102, 102); stroke-width: 1px;"/><rect width="300" height="25.734375" x="1" y="740.5625" style="fill: rgb(255, 255, 255);"/><text width="141" x="02" height="25.734375" y="757.71875">0.0158611628576319</text><text width="141" x="151" height="25.734375" y="757.71875">0.02623599835144</text><line x1="0" y1="740.5625" x2="302" y2="740.5625" style="stroke: rgb(102, 102, 102); stroke-width: 1px;"/><rect width="300" height="25.734375" x="1" y="766.296875" style="fill: rgb(239, 239, 239);"/><text width="141" x="02" height="25.734375" y="783.453125">0.0164592945932356</text><text width="141" x="151" height="25.734375" y="783.453125">0.0257113940301739</text><line x1="0" y1="766.296875" x2="302" y2="766.296875" style="stroke: rgb(102, 102, 102); stroke-width: 1px;"/><line x1="149" y1="0" x2="149" y2="792.03125" style="stroke: rgb(51, 51, 51); stroke-width: 1px;"/></svg>