<?xml version="1.0" standalone="no"?>
<svg xmlns:xlink="http://www.w3.org/1999/xlink" xmlns="http://www.w3.org/2000/svg" id="svg-chart" font-family="Times New Roman" height="47.734375" width="710" style="font-size: 12pt;"><rect id="table-bkgnd" style="fill: rgb(255, 255, 255); stroke: rgb(51, 51, 51);" width="710" height="45.734375"/><text x="29.5" y="15.333333333333334" font-weight="bold" class="column-title" width="61">1</text><text x="100.5" y="15.333333333333334" font-weight="bold" class="column-title" width="61">2</text><text x="171.5" y="15.333333333333334" font-weight="bold" class="column-title" width="61">3</text><text x="242.5" y="15.333333333333334" font-weight="bold" class="column-title" width="61">4</text><text x="313.5" y="15.333333333333334" font-weight="bold" class="column-title" width="61">5</text><text x="384.5" y="15.333333333333334" font-weight="bold" class="column-title" width="61">6</text><text x="455.5" y="15.333333333333334" font-weight="bold" class="column-title" width="61">7</text><text x="526.5" y="15.333333333333334" font-weight="bold" class="column-title" width="61">8</text><text x="597.5" y="15.333333333333334" font-weight="bold" class="column-title" width="61">9</text><text x="664.5" y="15.333333333333334" font-weight="bold" class="column-title" width="61">10</text><rect width="708" height="25.734375" x="1" y="20" style="fill: rgb(255, 255, 255);"/><text width="61" x="02" height="25.734375" y="37.15625">139.2253</text><text width="61" x="71" height="25.734375" y="37.15625">103.7167</text><text width="61" x="142" height="25.734375" y="37.15625">144.7640</text><text width="61" x="213" height="25.734375" y="37.15625">136.6900</text><text width="61" x="284" height="25.734375" y="37.15625">125.0790</text><text width="61" x="355" height="25.734375" y="37.15625">123.1971</text><text width="61" x="426" height="25.734375" y="37.15625">109.3857</text><text width="61" x="497" height="25.734375" y="37.15625">124.7099</text><text width="61" x="568" height="25.734375" y="37.15625">161.1388</text><text width="61" x="639" height="25.734375" y="37.15625">111.8197</text><line x1="69" y1="0" x2="69" y2="45.734375" style="stroke: rgb(51, 51, 51); stroke-width: 1px;"/><line x1="140" y1="0" x2="140" y2="45.734375" style="stroke: rgb(51, 51, 51); stroke-width: 1px;"/><line x1="211" y1="0" x2="211" y2="45.734375" style="stroke: rgb(51, 51, 51); stroke-width: 1px;"/><line x1="282" y1="0" x2="282" y2="45.734375" style="stroke: rgb(51, 51, 51); stroke-width: 1px;"/><line x1="353" y1="0" x2="353" y2="45.734375" style="stroke: rgb(51, 51, 51); stroke-width: 1px;"/><line x1="424" y1="0" x2="424" y2="45.734375" style="stroke: rgb(51, 51, 51); stroke-width: 1px;"/><line x1="495" y1="0" x2="495" y2="45.734375" style="stroke: rgb(51, 51, 51); stroke-width: 1px;"/><line x1="566" y1="0" x2="566" y2="45.734375" style="stroke: rgb(51, 51, 51); stroke-width: 1px;"/><line x1="637" y1="0" x2="637" y2="45.734375" style="stroke: rgb(51, 51, 51); stroke-width: 1px;"/></svg>