<?xml version="1.0" encoding="us-ascii" standalone="no"?><svg xmlns="http://www.w3.org/2000/svg" xmlns:xlink="http://www.w3.org/1999/xlink" contentStyleType="text/css" height="301px" preserveAspectRatio="none" style="width:417px;height:301px;background:#FFFFFF;" version="1.1" viewBox="0 0 417 301" width="417px" zoomAndPan="magnify"><defs/><g><!--class VisualizationTemplate--><g id="elem_VisualizationTemplate"><rect codeLine="3" fill="#F1F1F1" height="96.8906" id="VisualizationTemplate" rx="2.5" ry="2.5" style="stroke:#181818;stroke-width:0.5;" width="213" x="7" y="7"/><ellipse cx="31.45" cy="23" fill="#ADD1B2" rx="11" ry="11" style="stroke:#181818;stroke-width:1.0;"/><path d="M33.7938,18.6719 C32.8563,18.2344 32.2625,18.0938 31.3875,18.0938 C28.7625,18.0938 26.7625,20.1719 26.7625,22.8906 L26.7625,24.0156 C26.7625,26.5938 28.8719,28.4844 31.7625,28.4844 C32.9813,28.4844 34.1375,28.1875 34.8875,27.6406 C35.4656,27.2344 35.7938,26.7813 35.7938,26.3906 C35.7938,25.9375 35.4031,25.5469 34.9344,25.5469 C34.7156,25.5469 34.5125,25.625 34.325,25.8125 C33.8719,26.2969 33.8719,26.2969 33.6844,26.3906 C33.2625,26.6563 32.575,26.7813 31.8094,26.7813 C29.7625,26.7813 28.4656,25.6875 28.4656,23.9844 L28.4656,22.8906 C28.4656,21.1094 29.7156,19.7969 31.45,19.7969 C32.0281,19.7969 32.6375,19.9531 33.1063,20.2031 C33.5906,20.4844 33.7625,20.7031 33.8563,21.1094 C33.9188,21.5156 33.95,21.6406 34.0906,21.7656 C34.2313,21.9063 34.4656,22.0156 34.6844,22.0156 C34.95,22.0156 35.2156,21.875 35.3875,21.6563 C35.4969,21.5 35.5281,21.3125 35.5281,20.8906 L35.5281,19.4688 C35.5281,19.0313 35.5125,18.9063 35.4188,18.75 C35.2625,18.4844 34.9813,18.3438 34.6844,18.3438 C34.3875,18.3438 34.1844,18.4375 33.9656,18.75 L33.7938,18.6719 Z " fill="#000000"/><text fill="#000000" font-family="sans-serif" font-size="14" lengthAdjust="spacing" textLength="160" x="47.55" y="27.8467">VisualizationTemplate</text><line style="stroke:#181818;stroke-width:0.5;" x1="8" x2="219" y1="39" y2="39"/><ellipse cx="18" cy="52.6484" fill="none" rx="3" ry="3" style="stroke:#038048;stroke-width:1.0;"/><text fill="#000000" font-family="sans-serif" font-size="14" lengthAdjust="spacing" textLength="151" x="27" y="55.9951">TemplateID : Integer</text><ellipse cx="18" cy="68.9453" fill="none" rx="3" ry="3" style="stroke:#038048;stroke-width:1.0;"/><text fill="#000000" font-family="sans-serif" font-size="14" lengthAdjust="spacing" textLength="168" x="27" y="72.292">TemplateName : String</text><ellipse cx="18" cy="85.2422" fill="none" rx="3" ry="3" style="stroke:#038048;stroke-width:1.0;"/><text fill="#000000" font-family="sans-serif" font-size="14" lengthAdjust="spacing" textLength="187" x="27" y="88.5889">TemplateContent : String</text><line style="stroke:#181818;stroke-width:0.5;" x1="8" x2="219" y1="95.8906" y2="95.8906"/></g><!--class UserSavedVisualization--><g id="elem_UserSavedVisualization"><rect codeLine="9" fill="#F1F1F1" height="113.1875" id="UserSavedVisualization" rx="2.5" ry="2.5" style="stroke:#181818;stroke-width:0.5;" width="240" x="102.5" y="181"/><ellipse cx="137.3" cy="197" fill="#ADD1B2" rx="11" ry="11" style="stroke:#181818;stroke-width:1.0;"/><path d="M139.6438,192.6719 C138.7063,192.2344 138.1125,192.0938 137.2375,192.0938 C134.6125,192.0938 132.6125,194.1719 132.6125,196.8906 L132.6125,198.0156 C132.6125,200.5938 134.7219,202.4844 137.6125,202.4844 C138.8313,202.4844 139.9875,202.1875 140.7375,201.6406 C141.3156,201.2344 141.6438,200.7813 141.6438,200.3906 C141.6438,199.9375 141.2531,199.5469 140.7844,199.5469 C140.5656,199.5469 140.3625,199.625 140.175,199.8125 C139.7219,200.2969 139.7219,200.2969 139.5344,200.3906 C139.1125,200.6563 138.425,200.7813 137.6594,200.7813 C135.6125,200.7813 134.3156,199.6875 134.3156,197.9844 L134.3156,196.8906 C134.3156,195.1094 135.5656,193.7969 137.3,193.7969 C137.8781,193.7969 138.4875,193.9531 138.9563,194.2031 C139.4406,194.4844 139.6125,194.7031 139.7063,195.1094 C139.7688,195.5156 139.8,195.6406 139.9406,195.7656 C140.0813,195.9063 140.3156,196.0156 140.5344,196.0156 C140.8,196.0156 141.0656,195.875 141.2375,195.6563 C141.3469,195.5 141.3781,195.3125 141.3781,194.8906 L141.3781,193.4688 C141.3781,193.0313 141.3625,192.9063 141.2688,192.75 C141.1125,192.4844 140.8313,192.3438 140.5344,192.3438 C140.2375,192.3438 140.0344,192.4375 139.8156,192.75 L139.6438,192.6719 Z " fill="#000000"/><text fill="#000000" font-family="sans-serif" font-size="14" lengthAdjust="spacing" textLength="164" x="155.7" y="201.8467">UserSavedVisualization</text><line style="stroke:#181818;stroke-width:0.5;" x1="103.5" x2="341.5" y1="213" y2="213"/><ellipse cx="113.5" cy="226.6484" fill="none" rx="3" ry="3" style="stroke:#038048;stroke-width:1.0;"/><text fill="#000000" font-family="sans-serif" font-size="14" lengthAdjust="spacing" textLength="214" x="122.5" y="229.9951">SavedVisualizationID : Integer</text><ellipse cx="113.5" cy="242.9453" fill="none" rx="3" ry="3" style="stroke:#038048;stroke-width:1.0;"/><text fill="#000000" font-family="sans-serif" font-size="14" lengthAdjust="spacing" textLength="112" x="122.5" y="246.292">UserID : Integer</text><ellipse cx="113.5" cy="259.2422" fill="none" rx="3" ry="3" style="stroke:#038048;stroke-width:1.0;"/><text fill="#000000" font-family="sans-serif" font-size="14" lengthAdjust="spacing" textLength="151" x="122.5" y="262.5889">TemplateID : Integer</text><ellipse cx="113.5" cy="275.5391" fill="none" rx="3" ry="3" style="stroke:#038048;stroke-width:1.0;"/><text fill="#000000" font-family="sans-serif" font-size="14" lengthAdjust="spacing" textLength="126" x="122.5" y="278.8857">SavedDate : Date</text><line style="stroke:#181818;stroke-width:0.5;" x1="103.5" x2="341.5" y1="286.1875" y2="286.1875"/></g><!--class User--><g id="elem_User"><rect codeLine="16" fill="#F1F1F1" height="80.5938" id="User" rx="2.5" ry="2.5" style="stroke:#181818;stroke-width:0.5;" width="155" x="255" y="15"/><ellipse cx="312.75" cy="31" fill="#ADD1B2" rx="11" ry="11" style="stroke:#181818;stroke-width:1.0;"/><path d="M315.0938,26.6719 C314.1563,26.2344 313.5625,26.0938 312.6875,26.0938 C310.0625,26.0938 308.0625,28.1719 308.0625,30.8906 L308.0625,32.0156 C308.0625,34.5938 310.1719,36.4844 313.0625,36.4844 C314.2813,36.4844 315.4375,36.1875 316.1875,35.6406 C316.7656,35.2344 317.0938,34.7813 317.0938,34.3906 C317.0938,33.9375 316.7031,33.5469 316.2344,33.5469 C316.0156,33.5469 315.8125,33.625 315.625,33.8125 C315.1719,34.2969 315.1719,34.2969 314.9844,34.3906 C314.5625,34.6563 313.875,34.7813 313.1094,34.7813 C311.0625,34.7813 309.7656,33.6875 309.7656,31.9844 L309.7656,30.8906 C309.7656,29.1094 311.0156,27.7969 312.75,27.7969 C313.3281,27.7969 313.9375,27.9531 314.4063,28.2031 C314.8906,28.4844 315.0625,28.7031 315.1563,29.1094 C315.2188,29.5156 315.25,29.6406 315.3906,29.7656 C315.5313,29.9063 315.7656,30.0156 315.9844,30.0156 C316.25,30.0156 316.5156,29.875 316.6875,29.6563 C316.7969,29.5 316.8281,29.3125 316.8281,28.8906 L316.8281,27.4688 C316.8281,27.0313 316.8125,26.9063 316.7188,26.75 C316.5625,26.4844 316.2813,26.3438 315.9844,26.3438 C315.6875,26.3438 315.4844,26.4375 315.2656,26.75 L315.0938,26.6719 Z " fill="#000000"/><text fill="#000000" font-family="sans-serif" font-size="14" lengthAdjust="spacing" textLength="31" x="333.25" y="35.8467">User</text><line style="stroke:#181818;stroke-width:0.5;" x1="256" x2="409" y1="47" y2="47"/><ellipse cx="266" cy="60.6484" fill="none" rx="3" ry="3" style="stroke:#038048;stroke-width:1.0;"/><text fill="#000000" font-family="sans-serif" font-size="14" lengthAdjust="spacing" textLength="112" x="275" y="63.9951">UserID : Integer</text><ellipse cx="266" cy="76.9453" fill="none" rx="3" ry="3" style="stroke:#038048;stroke-width:1.0;"/><text fill="#000000" font-family="sans-serif" font-size="14" lengthAdjust="spacing" textLength="129" x="275" y="80.292">UserName : String</text><line style="stroke:#181818;stroke-width:0.5;" x1="256" x2="409" y1="87.5938" y2="87.5938"/></g><!--link VisualizationTemplate to UserSavedVisualization--><g id="link_VisualizationTemplate_UserSavedVisualization"><path codeLine="21" d="M142.424,104.264 C156.678,127.803 173.95,156.326 188.799,180.847 " fill="none" id="VisualizationTemplate-UserSavedVisualization" style="stroke:#181818;stroke-width:1.0;"/><text fill="#000000" font-family="sans-serif" font-size="13" lengthAdjust="spacing" textLength="58" x="169.5" y="147.0669">saved as</text><text fill="#000000" font-family="sans-serif" font-size="13" lengthAdjust="spacing" textLength="8" x="137.7732" y="123.9076">1</text><text fill="#000000" font-family="sans-serif" font-size="13" lengthAdjust="spacing" textLength="10" x="174.0823" y="170.0919">M</text></g><!--link User to UserSavedVisualization--><g id="link_User_UserSavedVisualization"><path codeLine="22" d="M308.36,96.002 C293.182,120.839 273.367,153.262 256.598,180.703 " fill="none" id="User-UserSavedVisualization" style="stroke:#181818;stroke-width:1.0;"/><text fill="#000000" font-family="sans-serif" font-size="13" lengthAdjust="spacing" textLength="38" x="284.5" y="147.0669">saves</text><text fill="#000000" font-family="sans-serif" font-size="13" lengthAdjust="spacing" textLength="8" x="295.8752" y="115.7622">1</text><text fill="#000000" font-family="sans-serif" font-size="13" lengthAdjust="spacing" textLength="10" x="250.1443" y="169.9304">M</text></g><!--SRC=[ZP0n2y8m48Nt_8epgpYuTfEsI44xsEf-sBC4sbHwqK7nlviKIWrfmImXx-FUUvTLHJUb2KvfNExo_I65QuFCGap2HV436_L2epfTKdjlq12y1TYp7jzP0X5asb1DlKzoRCcomlHArpwAEpkWpKG_lxbdfhx09rLUWJ4u9645vx1SB2I3P-AsYy1TOPynVTxPgVwwrc3- - -HMmcO3yYYNzeo0dGZ8OaZ-TuA_]--></g></svg>