<?xml version="1.0" encoding="us-ascii" standalone="no"?><svg xmlns="http://www.w3.org/2000/svg" xmlns:xlink="http://www.w3.org/1999/xlink" contentStyleType="text/css" height="415px" preserveAspectRatio="none" style="width:373px;height:415px;background:#FFFFFF;" version="1.1" viewBox="0 0 373 415" width="373px" zoomAndPan="magnify"><defs/><g><!--class User--><g id="elem_User"><rect codeLine="3" fill="#F1F1F1" height="243.5625" id="User" rx="2.5" ry="2.5" style="stroke:#181818;stroke-width:0.5;" width="206" x="80" y="7"/><ellipse cx="163.25" cy="23" fill="#ADD1B2" rx="11" ry="11" style="stroke:#181818;stroke-width:1.0;"/><path d="M165.5938,18.6719 C164.6563,18.2344 164.0625,18.0938 163.1875,18.0938 C160.5625,18.0938 158.5625,20.1719 158.5625,22.8906 L158.5625,24.0156 C158.5625,26.5938 160.6719,28.4844 163.5625,28.4844 C164.7813,28.4844 165.9375,28.1875 166.6875,27.6406 C167.2656,27.2344 167.5938,26.7813 167.5938,26.3906 C167.5938,25.9375 167.2031,25.5469 166.7344,25.5469 C166.5156,25.5469 166.3125,25.625 166.125,25.8125 C165.6719,26.2969 165.6719,26.2969 165.4844,26.3906 C165.0625,26.6563 164.375,26.7813 163.6094,26.7813 C161.5625,26.7813 160.2656,25.6875 160.2656,23.9844 L160.2656,22.8906 C160.2656,21.1094 161.5156,19.7969 163.25,19.7969 C163.8281,19.7969 164.4375,19.9531 164.9063,20.2031 C165.3906,20.4844 165.5625,20.7031 165.6563,21.1094 C165.7188,21.5156 165.75,21.6406 165.8906,21.7656 C166.0313,21.9063 166.2656,22.0156 166.4844,22.0156 C166.75,22.0156 167.0156,21.875 167.1875,21.6563 C167.2969,21.5 167.3281,21.3125 167.3281,20.8906 L167.3281,19.4688 C167.3281,19.0313 167.3125,18.9063 167.2188,18.75 C167.0625,18.4844 166.7813,18.3438 166.4844,18.3438 C166.1875,18.3438 165.9844,18.4375 165.7656,18.75 L165.5938,18.6719 Z " fill="#000000"/><text fill="#000000" font-family="sans-serif" font-size="14" lengthAdjust="spacing" textLength="31" x="183.75" y="27.8467">User</text><line style="stroke:#181818;stroke-width:0.5;" x1="81" x2="285" y1="39" y2="39"/><ellipse cx="91" cy="52.6484" fill="none" rx="3" ry="3" style="stroke:#038048;stroke-width:1.0;"/><text fill="#000000" font-family="sans-serif" font-size="14" lengthAdjust="spacing" textLength="112" x="100" y="55.9951">UserID : Integer</text><ellipse cx="91" cy="68.9453" fill="none" rx="3" ry="3" style="stroke:#038048;stroke-width:1.0;"/><text fill="#000000" font-family="sans-serif" font-size="14" lengthAdjust="spacing" textLength="129" x="100" y="72.292">UserName : String</text><ellipse cx="91" cy="85.2422" fill="none" rx="3" ry="3" style="stroke:#038048;stroke-width:1.0;"/><text fill="#000000" font-family="sans-serif" font-size="14" lengthAdjust="spacing" textLength="127" x="100" y="88.5889">UserEmail : String</text><ellipse cx="91" cy="101.5391" fill="none" rx="3" ry="3" style="stroke:#038048;stroke-width:1.0;"/><text fill="#000000" font-family="sans-serif" font-size="14" lengthAdjust="spacing" textLength="180" x="100" y="104.8857">UserOrganization : String</text><ellipse cx="91" cy="117.8359" fill="none" rx="3" ry="3" style="stroke:#038048;stroke-width:1.0;"/><text fill="#000000" font-family="sans-serif" font-size="14" lengthAdjust="spacing" textLength="152" x="100" y="121.1826">UserLanguage: String</text><ellipse cx="91" cy="134.1328" fill="none" rx="3" ry="3" style="stroke:#038048;stroke-width:1.0;"/><text fill="#000000" font-family="sans-serif" font-size="14" lengthAdjust="spacing" textLength="141" x="100" y="137.4795">UserCountry: String</text><ellipse cx="91" cy="150.4297" fill="none" rx="3" ry="3" style="stroke:#038048;stroke-width:1.0;"/><text fill="#000000" font-family="sans-serif" font-size="14" lengthAdjust="spacing" textLength="113" x="100" y="153.7764">UserCity: String</text><ellipse cx="91" cy="166.7266" fill="none" rx="3" ry="3" style="stroke:#038048;stroke-width:1.0;"/><text fill="#000000" font-family="sans-serif" font-size="14" lengthAdjust="spacing" textLength="141" x="100" y="170.0732">UserAddress: String</text><ellipse cx="91" cy="183.0234" fill="none" rx="3" ry="3" style="stroke:#038048;stroke-width:1.0;"/><text fill="#000000" font-family="sans-serif" font-size="14" lengthAdjust="spacing" textLength="129" x="100" y="186.3701">UserType: Integer</text><ellipse cx="91" cy="199.3203" fill="none" rx="3" ry="3" style="stroke:#038048;stroke-width:1.0;"/><text fill="#000000" font-family="sans-serif" font-size="14" lengthAdjust="spacing" textLength="124" x="100" y="202.667">IsAdmin: Boolean</text><ellipse cx="91" cy="215.6172" fill="none" rx="3" ry="3" style="stroke:#038048;stroke-width:1.0;"/><text fill="#000000" font-family="sans-serif" font-size="14" lengthAdjust="spacing" textLength="148" x="100" y="218.9639">IsActivated: Boolean</text><ellipse cx="91" cy="231.9141" fill="none" rx="3" ry="3" style="stroke:#038048;stroke-width:1.0;"/><text fill="#000000" font-family="sans-serif" font-size="14" lengthAdjust="spacing" textLength="135" x="100" y="235.2607">IsVerified: Boolean</text><line style="stroke:#181818;stroke-width:0.5;" x1="81" x2="285" y1="242.5625" y2="242.5625"/></g><!--class Role--><g id="elem_Role"><rect codeLine="18" fill="#F1F1F1" height="80.5938" id="Role" rx="2.5" ry="2.5" style="stroke:#181818;stroke-width:0.5;" width="156" x="7" y="328"/><ellipse cx="64.75" cy="344" fill="#ADD1B2" rx="11" ry="11" style="stroke:#181818;stroke-width:1.0;"/><path d="M67.0938,339.6719 C66.1563,339.2344 65.5625,339.0938 64.6875,339.0938 C62.0625,339.0938 60.0625,341.1719 60.0625,343.8906 L60.0625,345.0156 C60.0625,347.5938 62.1719,349.4844 65.0625,349.4844 C66.2813,349.4844 67.4375,349.1875 68.1875,348.6406 C68.7656,348.2344 69.0938,347.7813 69.0938,347.3906 C69.0938,346.9375 68.7031,346.5469 68.2344,346.5469 C68.0156,346.5469 67.8125,346.625 67.625,346.8125 C67.1719,347.2969 67.1719,347.2969 66.9844,347.3906 C66.5625,347.6563 65.875,347.7813 65.1094,347.7813 C63.0625,347.7813 61.7656,346.6875 61.7656,344.9844 L61.7656,343.8906 C61.7656,342.1094 63.0156,340.7969 64.75,340.7969 C65.3281,340.7969 65.9375,340.9531 66.4063,341.2031 C66.8906,341.4844 67.0625,341.7031 67.1563,342.1094 C67.2188,342.5156 67.25,342.6406 67.3906,342.7656 C67.5313,342.9063 67.7656,343.0156 67.9844,343.0156 C68.25,343.0156 68.5156,342.875 68.6875,342.6563 C68.7969,342.5 68.8281,342.3125 68.8281,341.8906 L68.8281,340.4688 C68.8281,340.0313 68.8125,339.9063 68.7188,339.75 C68.5625,339.4844 68.2813,339.3438 67.9844,339.3438 C67.6875,339.3438 67.4844,339.4375 67.2656,339.75 L67.0938,339.6719 Z " fill="#000000"/><text fill="#000000" font-family="sans-serif" font-size="14" lengthAdjust="spacing" textLength="32" x="85.25" y="348.8467">Role</text><line style="stroke:#181818;stroke-width:0.5;" x1="8" x2="162" y1="360" y2="360"/><ellipse cx="18" cy="373.6484" fill="none" rx="3" ry="3" style="stroke:#038048;stroke-width:1.0;"/><text fill="#000000" font-family="sans-serif" font-size="14" lengthAdjust="spacing" textLength="113" x="27" y="376.9951">RoleID : Integer</text><ellipse cx="18" cy="389.9453" fill="none" rx="3" ry="3" style="stroke:#038048;stroke-width:1.0;"/><text fill="#000000" font-family="sans-serif" font-size="14" lengthAdjust="spacing" textLength="130" x="27" y="393.292">RoleName : String</text><line style="stroke:#181818;stroke-width:0.5;" x1="8" x2="162" y1="400.5938" y2="400.5938"/></g><!--class Group--><g id="elem_Group"><rect codeLine="23" fill="#F1F1F1" height="80.5938" id="Group" rx="2.5" ry="2.5" style="stroke:#181818;stroke-width:0.5;" width="168" x="198" y="328"/><ellipse cx="255.75" cy="344" fill="#ADD1B2" rx="11" ry="11" style="stroke:#181818;stroke-width:1.0;"/><path d="M258.0938,339.6719 C257.1563,339.2344 256.5625,339.0938 255.6875,339.0938 C253.0625,339.0938 251.0625,341.1719 251.0625,343.8906 L251.0625,345.0156 C251.0625,347.5938 253.1719,349.4844 256.0625,349.4844 C257.2813,349.4844 258.4375,349.1875 259.1875,348.6406 C259.7656,348.2344 260.0938,347.7813 260.0938,347.3906 C260.0938,346.9375 259.7031,346.5469 259.2344,346.5469 C259.0156,346.5469 258.8125,346.625 258.625,346.8125 C258.1719,347.2969 258.1719,347.2969 257.9844,347.3906 C257.5625,347.6563 256.875,347.7813 256.1094,347.7813 C254.0625,347.7813 252.7656,346.6875 252.7656,344.9844 L252.7656,343.8906 C252.7656,342.1094 254.0156,340.7969 255.75,340.7969 C256.3281,340.7969 256.9375,340.9531 257.4063,341.2031 C257.8906,341.4844 258.0625,341.7031 258.1563,342.1094 C258.2188,342.5156 258.25,342.6406 258.3906,342.7656 C258.5313,342.9063 258.7656,343.0156 258.9844,343.0156 C259.25,343.0156 259.5156,342.875 259.6875,342.6563 C259.7969,342.5 259.8281,342.3125 259.8281,341.8906 L259.8281,340.4688 C259.8281,340.0313 259.8125,339.9063 259.7188,339.75 C259.5625,339.4844 259.2813,339.3438 258.9844,339.3438 C258.6875,339.3438 258.4844,339.4375 258.2656,339.75 L258.0938,339.6719 Z " fill="#000000"/><text fill="#000000" font-family="sans-serif" font-size="14" lengthAdjust="spacing" textLength="44" x="276.25" y="348.8467">Group</text><line style="stroke:#181818;stroke-width:0.5;" x1="199" x2="365" y1="360" y2="360"/><ellipse cx="209" cy="373.6484" fill="none" rx="3" ry="3" style="stroke:#038048;stroke-width:1.0;"/><text fill="#000000" font-family="sans-serif" font-size="14" lengthAdjust="spacing" textLength="125" x="218" y="376.9951">GroupID : Integer</text><ellipse cx="209" cy="389.9453" fill="none" rx="3" ry="3" style="stroke:#038048;stroke-width:1.0;"/><text fill="#000000" font-family="sans-serif" font-size="14" lengthAdjust="spacing" textLength="142" x="218" y="393.292">GroupName : String</text><line style="stroke:#181818;stroke-width:0.5;" x1="199" x2="365" y1="400.5938" y2="400.5938"/></g><!--link User to Role--><g id="link_User_Role"><path codeLine="28" d="M132.995,251.185 C121.528,278.975 110.135,306.586 101.3282,327.929 " fill="none" id="User-Role" style="stroke:#181818;stroke-width:1.0;"/><text fill="#000000" font-family="sans-serif" font-size="13" lengthAdjust="spacing" textLength="23" x="121" y="294.0669">has</text><text fill="#000000" font-family="sans-serif" font-size="13" lengthAdjust="spacing" textLength="8" x="121.8728" y="270.7658">1</text><text fill="#000000" font-family="sans-serif" font-size="13" lengthAdjust="spacing" textLength="10" x="93.2044" y="317.0788">M</text></g><!--link User to Group--><g id="link_User_Group"><path codeLine="29" d="M233.515,251.185 C245.099,278.975 256.609,306.586 265.505,327.929 " fill="none" id="User-Group" style="stroke:#181818;stroke-width:1.0;"/><text fill="#000000" font-family="sans-serif" font-size="13" lengthAdjust="spacing" textLength="67" x="253" y="294.0669">belongs to</text><text fill="#000000" font-family="sans-serif" font-size="13" lengthAdjust="spacing" textLength="8" x="228.2041" y="270.7658">1</text><text fill="#000000" font-family="sans-serif" font-size="13" lengthAdjust="spacing" textLength="10" x="251.9449" y="317.0788">M</text></g><!--SRC=[RP5Dgy8m44Nt_HNpkXKNRzjTrI85Fy2l_MZ6ED1E94a55V-xRSLNVMbMatFW9hdvKNHa8LXbuqswcCuoE1JeN1HrOEl8mZs2UWsQEPz00hbuqcGxki2IQhxsbaLtE2kHYnw-j1g5R-ZPI8-UeUWADOLcR2hnzjeZsFVGL2bBpeLYSptJlsVaBbKbIm8ZOmf2-QC7pnVqf0Ap8yj7_XIFp-PMDNitrynXSmtzRkuhO6fDTNudj9imeiL1HljfyMyCmo74y_XrbGHEw0BrEYI1FHL6j0DldW00]--></g></svg>