<?xml version="1.0" encoding="us-ascii" standalone="no"?><svg xmlns="http://www.w3.org/2000/svg" xmlns:xlink="http://www.w3.org/1999/xlink" contentStyleType="text/css" height="301px" preserveAspectRatio="none" style="width:438px;height:301px;background:#FFFFFF;" version="1.1" viewBox="0 0 438 301" width="438px" zoomAndPan="magnify"><defs/><g><!--class MitigationStrategy--><g id="elem_MitigationStrategy"><rect codeLine="3" fill="#F1F1F1" height="96.8906" id="MitigationStrategy" rx="2.5" ry="2.5" style="stroke:#181818;stroke-width:0.5;" width="230" x="104.5" y="7"/><ellipse cx="147.4" cy="23" fill="#ADD1B2" rx="11" ry="11" style="stroke:#181818;stroke-width:1.0;"/><path d="M149.7438,18.6719 C148.8063,18.2344 148.2125,18.0938 147.3375,18.0938 C144.7125,18.0938 142.7125,20.1719 142.7125,22.8906 L142.7125,24.0156 C142.7125,26.5938 144.8219,28.4844 147.7125,28.4844 C148.9313,28.4844 150.0875,28.1875 150.8375,27.6406 C151.4156,27.2344 151.7438,26.7813 151.7438,26.3906 C151.7438,25.9375 151.3531,25.5469 150.8844,25.5469 C150.6656,25.5469 150.4625,25.625 150.275,25.8125 C149.8219,26.2969 149.8219,26.2969 149.6344,26.3906 C149.2125,26.6563 148.525,26.7813 147.7594,26.7813 C145.7125,26.7813 144.4156,25.6875 144.4156,23.9844 L144.4156,22.8906 C144.4156,21.1094 145.6656,19.7969 147.4,19.7969 C147.9781,19.7969 148.5875,19.9531 149.0563,20.2031 C149.5406,20.4844 149.7125,20.7031 149.8063,21.1094 C149.8688,21.5156 149.9,21.6406 150.0406,21.7656 C150.1813,21.9063 150.4156,22.0156 150.6344,22.0156 C150.9,22.0156 151.1656,21.875 151.3375,21.6563 C151.4469,21.5 151.4781,21.3125 151.4781,20.8906 L151.4781,19.4688 C151.4781,19.0313 151.4625,18.9063 151.3688,18.75 C151.2125,18.4844 150.9313,18.3438 150.6344,18.3438 C150.3375,18.3438 150.1344,18.4375 149.9156,18.75 L149.7438,18.6719 Z " fill="#000000"/><text fill="#000000" font-family="sans-serif" font-size="14" lengthAdjust="spacing" textLength="136" x="167.6" y="27.8467">MitigationStrategy</text><line style="stroke:#181818;stroke-width:0.5;" x1="105.5" x2="333.5" y1="39" y2="39"/><ellipse cx="115.5" cy="52.6484" fill="none" rx="3" ry="3" style="stroke:#038048;stroke-width:1.0;"/><text fill="#000000" font-family="sans-serif" font-size="14" lengthAdjust="spacing" textLength="144" x="124.5" y="55.9951">StrategyID : Integer</text><ellipse cx="115.5" cy="68.9453" fill="none" rx="3" ry="3" style="stroke:#038048;stroke-width:1.0;"/><text fill="#000000" font-family="sans-serif" font-size="14" lengthAdjust="spacing" textLength="161" x="124.5" y="72.292">StrategyName : String</text><ellipse cx="115.5" cy="85.2422" fill="none" rx="3" ry="3" style="stroke:#038048;stroke-width:1.0;"/><text fill="#000000" font-family="sans-serif" font-size="14" lengthAdjust="spacing" textLength="204" x="124.5" y="88.5889">StrategyDescription : String</text><line style="stroke:#181818;stroke-width:0.5;" x1="105.5" x2="333.5" y1="95.8906" y2="95.8906"/></g><!--class ImplementationStatus--><g id="elem_ImplementationStatus"><rect codeLine="9" fill="#F1F1F1" height="113.1875" id="ImplementationStatus" rx="2.5" ry="2.5" style="stroke:#181818;stroke-width:0.5;" width="195" x="7" y="181"/><ellipse cx="22" cy="197" fill="#ADD1B2" rx="11" ry="11" style="stroke:#181818;stroke-width:1.0;"/><path d="M24.3438,192.6719 C23.4063,192.2344 22.8125,192.0938 21.9375,192.0938 C19.3125,192.0938 17.3125,194.1719 17.3125,196.8906 L17.3125,198.0156 C17.3125,200.5938 19.4219,202.4844 22.3125,202.4844 C23.5313,202.4844 24.6875,202.1875 25.4375,201.6406 C26.0156,201.2344 26.3438,200.7813 26.3438,200.3906 C26.3438,199.9375 25.9531,199.5469 25.4844,199.5469 C25.2656,199.5469 25.0625,199.625 24.875,199.8125 C24.4219,200.2969 24.4219,200.2969 24.2344,200.3906 C23.8125,200.6563 23.125,200.7813 22.3594,200.7813 C20.3125,200.7813 19.0156,199.6875 19.0156,197.9844 L19.0156,196.8906 C19.0156,195.1094 20.2656,193.7969 22,193.7969 C22.5781,193.7969 23.1875,193.9531 23.6563,194.2031 C24.1406,194.4844 24.3125,194.7031 24.4063,195.1094 C24.4688,195.5156 24.5,195.6406 24.6406,195.7656 C24.7813,195.9063 25.0156,196.0156 25.2344,196.0156 C25.5,196.0156 25.7656,195.875 25.9375,195.6563 C26.0469,195.5 26.0781,195.3125 26.0781,194.8906 L26.0781,193.4688 C26.0781,193.0313 26.0625,192.9063 25.9688,192.75 C25.8125,192.4844 25.5313,192.3438 25.2344,192.3438 C24.9375,192.3438 24.7344,192.4375 24.5156,192.75 L24.3438,192.6719 Z " fill="#000000"/><text fill="#000000" font-family="sans-serif" font-size="14" lengthAdjust="spacing" textLength="163" x="36" y="201.8467">ImplementationStatus</text><line style="stroke:#181818;stroke-width:0.5;" x1="8" x2="201" y1="213" y2="213"/><ellipse cx="18" cy="226.6484" fill="none" rx="3" ry="3" style="stroke:#038048;stroke-width:1.0;"/><text fill="#000000" font-family="sans-serif" font-size="14" lengthAdjust="spacing" textLength="127" x="27" y="229.9951">StatusID : Integer</text><ellipse cx="18" cy="242.9453" fill="none" rx="3" ry="3" style="stroke:#038048;stroke-width:1.0;"/><text fill="#000000" font-family="sans-serif" font-size="14" lengthAdjust="spacing" textLength="144" x="27" y="246.292">StrategyID : Integer</text><ellipse cx="18" cy="259.2422" fill="none" rx="3" ry="3" style="stroke:#038048;stroke-width:1.0;"/><text fill="#000000" font-family="sans-serif" font-size="14" lengthAdjust="spacing" textLength="103" x="27" y="262.5889">Status : String</text><ellipse cx="18" cy="275.5391" fill="none" rx="3" ry="3" style="stroke:#038048;stroke-width:1.0;"/><text fill="#000000" font-family="sans-serif" font-size="14" lengthAdjust="spacing" textLength="135" x="27" y="278.8857">UpdateDate : Date</text><line style="stroke:#181818;stroke-width:0.5;" x1="8" x2="201" y1="286.1875" y2="286.1875"/></g><!--class MonitoringReport--><g id="elem_MonitoringReport"><rect codeLine="16" fill="#F1F1F1" height="113.1875" id="MonitoringReport" rx="2.5" ry="2.5" style="stroke:#181818;stroke-width:0.5;" width="194" x="237.5" y="181"/><ellipse cx="267.35" cy="197" fill="#ADD1B2" rx="11" ry="11" style="stroke:#181818;stroke-width:1.0;"/><path d="M269.6938,192.6719 C268.7563,192.2344 268.1625,192.0938 267.2875,192.0938 C264.6625,192.0938 262.6625,194.1719 262.6625,196.8906 L262.6625,198.0156 C262.6625,200.5938 264.7719,202.4844 267.6625,202.4844 C268.8813,202.4844 270.0375,202.1875 270.7875,201.6406 C271.3656,201.2344 271.6938,200.7813 271.6938,200.3906 C271.6938,199.9375 271.3031,199.5469 270.8344,199.5469 C270.6156,199.5469 270.4125,199.625 270.225,199.8125 C269.7719,200.2969 269.7719,200.2969 269.5844,200.3906 C269.1625,200.6563 268.475,200.7813 267.7094,200.7813 C265.6625,200.7813 264.3656,199.6875 264.3656,197.9844 L264.3656,196.8906 C264.3656,195.1094 265.6156,193.7969 267.35,193.7969 C267.9281,193.7969 268.5375,193.9531 269.0063,194.2031 C269.4906,194.4844 269.6625,194.7031 269.7563,195.1094 C269.8188,195.5156 269.85,195.6406 269.9906,195.7656 C270.1313,195.9063 270.3656,196.0156 270.5844,196.0156 C270.85,196.0156 271.1156,195.875 271.2875,195.6563 C271.3969,195.5 271.4281,195.3125 271.4281,194.8906 L271.4281,193.4688 C271.4281,193.0313 271.4125,192.9063 271.3188,192.75 C271.1625,192.4844 270.8813,192.3438 270.5844,192.3438 C270.2875,192.3438 270.0844,192.4375 269.8656,192.75 L269.6938,192.6719 Z " fill="#000000"/><text fill="#000000" font-family="sans-serif" font-size="14" lengthAdjust="spacing" textLength="129" x="284.65" y="201.8467">MonitoringReport</text><line style="stroke:#181818;stroke-width:0.5;" x1="238.5" x2="430.5" y1="213" y2="213"/><ellipse cx="248.5" cy="226.6484" fill="none" rx="3" ry="3" style="stroke:#038048;stroke-width:1.0;"/><text fill="#000000" font-family="sans-serif" font-size="14" lengthAdjust="spacing" textLength="132" x="257.5" y="229.9951">ReportID : Integer</text><ellipse cx="248.5" cy="242.9453" fill="none" rx="3" ry="3" style="stroke:#038048;stroke-width:1.0;"/><text fill="#000000" font-family="sans-serif" font-size="14" lengthAdjust="spacing" textLength="144" x="257.5" y="246.292">StrategyID : Integer</text><ellipse cx="248.5" cy="259.2422" fill="none" rx="3" ry="3" style="stroke:#038048;stroke-width:1.0;"/><text fill="#000000" font-family="sans-serif" font-size="14" lengthAdjust="spacing" textLength="134" x="257.5" y="262.5889">ReportDate : Date</text><ellipse cx="248.5" cy="275.5391" fill="none" rx="3" ry="3" style="stroke:#038048;stroke-width:1.0;"/><text fill="#000000" font-family="sans-serif" font-size="14" lengthAdjust="spacing" textLength="168" x="257.5" y="278.8857">ReportContent : String</text><line style="stroke:#181818;stroke-width:0.5;" x1="238.5" x2="430.5" y1="286.1875" y2="286.1875"/></g><!--link MitigationStrategy to ImplementationStatus--><g id="link_MitigationStrategy_ImplementationStatus"><path codeLine="23" d="M188.984,104.264 C173.946,127.803 155.722,156.326 140.056,180.847 " fill="none" id="MitigationStrategy-ImplementationStatus" style="stroke:#181818;stroke-width:1.0;"/><text fill="#000000" font-family="sans-serif" font-size="13" lengthAdjust="spacing" textLength="23" x="170.5" y="147.0669">has</text><text fill="#000000" font-family="sans-serif" font-size="13" lengthAdjust="spacing" textLength="8" x="176.3459" y="123.9076">1</text><text fill="#000000" font-family="sans-serif" font-size="13" lengthAdjust="spacing" textLength="10" x="133.78" y="170.0919">M</text></g><!--link MitigationStrategy to MonitoringReport--><g id="link_MitigationStrategy_MonitoringReport"><path codeLine="24" d="M250.016,104.264 C265.054,127.803 283.278,156.326 298.944,180.847 " fill="none" id="MitigationStrategy-MonitoringReport" style="stroke:#181818;stroke-width:1.0;"/><text fill="#000000" font-family="sans-serif" font-size="13" lengthAdjust="spacing" textLength="23" x="278.5" y="147.0669">has</text><text fill="#000000" font-family="sans-serif" font-size="13" lengthAdjust="spacing" textLength="8" x="245.5791" y="123.9076">1</text><text fill="#000000" font-family="sans-serif" font-size="13" lengthAdjust="spacing" textLength="10" x="284.0012" y="170.0919">M</text></g><!--SRC=[bL113e8m4BppYhLNmy4hDmF4a0W7r0Sqi68JQKcx7epnxxOWWKQCiKdJpivCPxkh6iz28fHfVDmMktqArPKR4mHJ8HSa6av2oGDfJjZSuH60NUiHPmb4a4bxHUqp1M_HSXOAsVXKWgRIedFlJehdF3XhkoksAEaTpkbcfcY7lWSlCRtVR-RKrLQUs6q9T_WTv4eAKavUOgSqZUa3-YTzSCo3PkLOMQaaRmmBKsSR1c48B6VBeudWmiqFuyUFUjCB]--></g></svg>