<?xml version="1.0" encoding="us-ascii" standalone="no"?><svg xmlns="http://www.w3.org/2000/svg" xmlns:xlink="http://www.w3.org/1999/xlink" contentStyleType="text/css" height="507px" preserveAspectRatio="none" style="width:247px;height:507px;background:#FFFFFF;" version="1.1" viewBox="0 0 247 507" width="247px" zoomAndPan="magnify"><defs/><g><!--class ResourceAllocation--><g id="elem_ResourceAllocation"><rect codeLine="3" fill="#F1F1F1" height="113.1875" id="ResourceAllocation" rx="2.5" ry="2.5" style="stroke:#181818;stroke-width:0.5;" width="224" x="11.5" y="197"/><ellipse cx="50.8" cy="213" fill="#ADD1B2" rx="11" ry="11" style="stroke:#181818;stroke-width:1.0;"/><path d="M53.1438,208.6719 C52.2063,208.2344 51.6125,208.0938 50.7375,208.0938 C48.1125,208.0938 46.1125,210.1719 46.1125,212.8906 L46.1125,214.0156 C46.1125,216.5938 48.2219,218.4844 51.1125,218.4844 C52.3313,218.4844 53.4875,218.1875 54.2375,217.6406 C54.8156,217.2344 55.1438,216.7813 55.1438,216.3906 C55.1438,215.9375 54.7531,215.5469 54.2844,215.5469 C54.0656,215.5469 53.8625,215.625 53.675,215.8125 C53.2219,216.2969 53.2219,216.2969 53.0344,216.3906 C52.6125,216.6563 51.925,216.7813 51.1594,216.7813 C49.1125,216.7813 47.8156,215.6875 47.8156,213.9844 L47.8156,212.8906 C47.8156,211.1094 49.0656,209.7969 50.8,209.7969 C51.3781,209.7969 51.9875,209.9531 52.4563,210.2031 C52.9406,210.4844 53.1125,210.7031 53.2063,211.1094 C53.2688,211.5156 53.3,211.6406 53.4406,211.7656 C53.5813,211.9063 53.8156,212.0156 54.0344,212.0156 C54.3,212.0156 54.5656,211.875 54.7375,211.6563 C54.8469,211.5 54.8781,211.3125 54.8781,210.8906 L54.8781,209.4688 C54.8781,209.0313 54.8625,208.9063 54.7688,208.75 C54.6125,208.4844 54.3313,208.3438 54.0344,208.3438 C53.7375,208.3438 53.5344,208.4375 53.3156,208.75 L53.1438,208.6719 Z " fill="#000000"/><text fill="#000000" font-family="sans-serif" font-size="14" lengthAdjust="spacing" textLength="138" x="70.2" y="217.8467">ResourceAllocation</text><line style="stroke:#181818;stroke-width:0.5;" x1="12.5" x2="234.5" y1="229" y2="229"/><ellipse cx="22.5" cy="242.6484" fill="none" rx="3" ry="3" style="stroke:#038048;stroke-width:1.0;"/><text fill="#000000" font-family="sans-serif" font-size="14" lengthAdjust="spacing" textLength="153" x="31.5" y="245.9951">AllocationID : Integer</text><ellipse cx="22.5" cy="258.9453" fill="none" rx="3" ry="3" style="stroke:#038048;stroke-width:1.0;"/><text fill="#000000" font-family="sans-serif" font-size="14" lengthAdjust="spacing" textLength="140" x="31.5" y="262.292">RequestID : Integer</text><ellipse cx="22.5" cy="275.2422" fill="none" rx="3" ry="3" style="stroke:#038048;stroke-width:1.0;"/><text fill="#000000" font-family="sans-serif" font-size="14" lengthAdjust="spacing" textLength="155" x="31.5" y="278.5889">AllocationDate : Date</text><ellipse cx="22.5" cy="291.5391" fill="none" rx="3" ry="3" style="stroke:#038048;stroke-width:1.0;"/><text fill="#000000" font-family="sans-serif" font-size="14" lengthAdjust="spacing" textLength="198" x="31.5" y="294.8857">AllocatedResources : String</text><line style="stroke:#181818;stroke-width:0.5;" x1="12.5" x2="234.5" y1="302.1875" y2="302.1875"/></g><!--class ResourceUtilization--><g id="elem_ResourceUtilization"><rect codeLine="10" fill="#F1F1F1" height="113.1875" id="ResourceUtilization" rx="2.5" ry="2.5" style="stroke:#181818;stroke-width:0.5;" width="210" x="18.5" y="387"/><ellipse cx="51.05" cy="403" fill="#ADD1B2" rx="11" ry="11" style="stroke:#181818;stroke-width:1.0;"/><path d="M53.3938,398.6719 C52.4563,398.2344 51.8625,398.0938 50.9875,398.0938 C48.3625,398.0938 46.3625,400.1719 46.3625,402.8906 L46.3625,404.0156 C46.3625,406.5938 48.4719,408.4844 51.3625,408.4844 C52.5813,408.4844 53.7375,408.1875 54.4875,407.6406 C55.0656,407.2344 55.3938,406.7813 55.3938,406.3906 C55.3938,405.9375 55.0031,405.5469 54.5344,405.5469 C54.3156,405.5469 54.1125,405.625 53.925,405.8125 C53.4719,406.2969 53.4719,406.2969 53.2844,406.3906 C52.8625,406.6563 52.175,406.7813 51.4094,406.7813 C49.3625,406.7813 48.0656,405.6875 48.0656,403.9844 L48.0656,402.8906 C48.0656,401.1094 49.3156,399.7969 51.05,399.7969 C51.6281,399.7969 52.2375,399.9531 52.7063,400.2031 C53.1906,400.4844 53.3625,400.7031 53.4563,401.1094 C53.5188,401.5156 53.55,401.6406 53.6906,401.7656 C53.8313,401.9063 54.0656,402.0156 54.2844,402.0156 C54.55,402.0156 54.8156,401.875 54.9875,401.6563 C55.0969,401.5 55.1281,401.3125 55.1281,400.8906 L55.1281,399.4688 C55.1281,399.0313 55.1125,398.9063 55.0188,398.75 C54.8625,398.4844 54.5813,398.3438 54.2844,398.3438 C53.9875,398.3438 53.7844,398.4375 53.5656,398.75 L53.3938,398.6719 Z " fill="#000000"/><text fill="#000000" font-family="sans-serif" font-size="14" lengthAdjust="spacing" textLength="139" x="68.95" y="407.8467">ResourceUtilization</text><line style="stroke:#181818;stroke-width:0.5;" x1="19.5" x2="227.5" y1="419" y2="419"/><ellipse cx="29.5" cy="432.6484" fill="none" rx="3" ry="3" style="stroke:#038048;stroke-width:1.0;"/><text fill="#000000" font-family="sans-serif" font-size="14" lengthAdjust="spacing" textLength="154" x="38.5" y="435.9951">UtilizationID : Integer</text><ellipse cx="29.5" cy="448.9453" fill="none" rx="3" ry="3" style="stroke:#038048;stroke-width:1.0;"/><text fill="#000000" font-family="sans-serif" font-size="14" lengthAdjust="spacing" textLength="153" x="38.5" y="452.292">AllocationID : Integer</text><ellipse cx="29.5" cy="465.2422" fill="none" rx="3" ry="3" style="stroke:#038048;stroke-width:1.0;"/><text fill="#000000" font-family="sans-serif" font-size="14" lengthAdjust="spacing" textLength="156" x="38.5" y="468.5889">UtilizationDate : Date</text><ellipse cx="29.5" cy="481.5391" fill="none" rx="3" ry="3" style="stroke:#038048;stroke-width:1.0;"/><text fill="#000000" font-family="sans-serif" font-size="14" lengthAdjust="spacing" textLength="184" x="38.5" y="484.8857">UtilizedResources : String</text><line style="stroke:#181818;stroke-width:0.5;" x1="19.5" x2="227.5" y1="492.1875" y2="492.1875"/></g><!--class ResourceRequest--><g id="elem_ResourceRequest"><rect codeLine="17" fill="#F1F1F1" height="113.1875" id="ResourceRequest" rx="2.5" ry="2.5" style="stroke:#181818;stroke-width:0.5;" width="233" x="7" y="7"/><ellipse cx="56.75" cy="23" fill="#ADD1B2" rx="11" ry="11" style="stroke:#181818;stroke-width:1.0;"/><path d="M59.0938,18.6719 C58.1563,18.2344 57.5625,18.0938 56.6875,18.0938 C54.0625,18.0938 52.0625,20.1719 52.0625,22.8906 L52.0625,24.0156 C52.0625,26.5938 54.1719,28.4844 57.0625,28.4844 C58.2813,28.4844 59.4375,28.1875 60.1875,27.6406 C60.7656,27.2344 61.0938,26.7813 61.0938,26.3906 C61.0938,25.9375 60.7031,25.5469 60.2344,25.5469 C60.0156,25.5469 59.8125,25.625 59.625,25.8125 C59.1719,26.2969 59.1719,26.2969 58.9844,26.3906 C58.5625,26.6563 57.875,26.7813 57.1094,26.7813 C55.0625,26.7813 53.7656,25.6875 53.7656,23.9844 L53.7656,22.8906 C53.7656,21.1094 55.0156,19.7969 56.75,19.7969 C57.3281,19.7969 57.9375,19.9531 58.4063,20.2031 C58.8906,20.4844 59.0625,20.7031 59.1563,21.1094 C59.2188,21.5156 59.25,21.6406 59.3906,21.7656 C59.5313,21.9063 59.7656,22.0156 59.9844,22.0156 C60.25,22.0156 60.5156,21.875 60.6875,21.6563 C60.7969,21.5 60.8281,21.3125 60.8281,20.8906 L60.8281,19.4688 C60.8281,19.0313 60.8125,18.9063 60.7188,18.75 C60.5625,18.4844 60.2813,18.3438 59.9844,18.3438 C59.6875,18.3438 59.4844,18.4375 59.2656,18.75 L59.0938,18.6719 Z " fill="#000000"/><text fill="#000000" font-family="sans-serif" font-size="14" lengthAdjust="spacing" textLength="125" x="77.25" y="27.8467">ResourceRequest</text><line style="stroke:#181818;stroke-width:0.5;" x1="8" x2="239" y1="39" y2="39"/><ellipse cx="18" cy="52.6484" fill="none" rx="3" ry="3" style="stroke:#038048;stroke-width:1.0;"/><text fill="#000000" font-family="sans-serif" font-size="14" lengthAdjust="spacing" textLength="140" x="27" y="55.9951">RequestID : Integer</text><ellipse cx="18" cy="68.9453" fill="none" rx="3" ry="3" style="stroke:#038048;stroke-width:1.0;"/><text fill="#000000" font-family="sans-serif" font-size="14" lengthAdjust="spacing" textLength="142" x="27" y="72.292">RequestDate : Date</text><ellipse cx="18" cy="85.2422" fill="none" rx="3" ry="3" style="stroke:#038048;stroke-width:1.0;"/><text fill="#000000" font-family="sans-serif" font-size="14" lengthAdjust="spacing" textLength="207" x="27" y="88.5889">RequestedResources : String</text><ellipse cx="18" cy="101.5391" fill="none" rx="3" ry="3" style="stroke:#038048;stroke-width:1.0;"/><text fill="#000000" font-family="sans-serif" font-size="14" lengthAdjust="spacing" textLength="182" x="27" y="104.8857">RequestingEntity : String</text><line style="stroke:#181818;stroke-width:0.5;" x1="8" x2="239" y1="112.1875" y2="112.1875"/></g><!--link ResourceRequest to ResourceAllocation--><g id="link_ResourceRequest_ResourceAllocation"><path codeLine="24" d="M123.5,120.143 C123.5,144.397 123.5,172.762 123.5,197 " fill="none" id="ResourceRequest-ResourceAllocation" style="stroke:#181818;stroke-width:1.0;"/><text fill="#000000" font-family="sans-serif" font-size="13" lengthAdjust="spacing" textLength="58" x="124.5" y="163.0669">results in</text><text fill="#000000" font-family="sans-serif" font-size="13" lengthAdjust="spacing" textLength="8" x="114.9875" y="140.4247">1</text><text fill="#000000" font-family="sans-serif" font-size="13" lengthAdjust="spacing" textLength="10" x="112.8594" y="185.8634">M</text></g><!--link ResourceAllocation to ResourceUtilization--><g id="link_ResourceAllocation_ResourceUtilization"><path codeLine="25" d="M123.5,310.143 C123.5,334.397 123.5,362.762 123.5,387 " fill="none" id="ResourceAllocation-ResourceUtilization" style="stroke:#181818;stroke-width:1.0;"/><text fill="#000000" font-family="sans-serif" font-size="13" lengthAdjust="spacing" textLength="86" x="124.5" y="353.0669">monitored by</text><text fill="#000000" font-family="sans-serif" font-size="13" lengthAdjust="spacing" textLength="8" x="114.9875" y="330.4247">1</text><text fill="#000000" font-family="sans-serif" font-size="13" lengthAdjust="spacing" textLength="10" x="112.8594" y="375.8634">M</text></g><!--SRC=[ZP713e8m44Jl_OgrLyF1ApSYn92e1zGFG5X9azh6TZcWyT_50A58DVRIT5udCzqkIhm8XP0bwsEqtsmJA6HkBMEZaA7LjIamab8NEGcjuC6WNSjHIMC88LM45PgEPNYhqT8SZAOu9spfUviWB8T8s-836Q4gzlHLEf6GuZxfv4Y_ikVCCSwATUp_NltZXqvVPz63MLwlUmFT2-qvKIIecVRvQC5N7880-8xx_Z84WxQMP44evk4Ujpls4AvQ2T86IpWtBm00]--></g></svg>