<?xml version="1.0" encoding="us-ascii" standalone="no"?><svg xmlns="http://www.w3.org/2000/svg" xmlns:xlink="http://www.w3.org/1999/xlink" contentStyleType="text/css" height="317px" preserveAspectRatio="none" style="width:477px;height:317px;background:#FFFFFF;" version="1.1" viewBox="0 0 477 317" width="477px" zoomAndPan="magnify"><defs/><g><!--class DesertificationRiskZone--><g id="elem_DesertificationRiskZone"><rect codeLine="3" fill="#F1F1F1" height="96.8906" id="DesertificationRiskZone" rx="2.5" ry="2.5" style="stroke:#181818;stroke-width:0.5;" width="207" x="7" y="7"/><ellipse cx="22" cy="23" fill="#ADD1B2" rx="11" ry="11" style="stroke:#181818;stroke-width:1.0;"/><path d="M24.3438,18.6719 C23.4063,18.2344 22.8125,18.0938 21.9375,18.0938 C19.3125,18.0938 17.3125,20.1719 17.3125,22.8906 L17.3125,24.0156 C17.3125,26.5938 19.4219,28.4844 22.3125,28.4844 C23.5313,28.4844 24.6875,28.1875 25.4375,27.6406 C26.0156,27.2344 26.3438,26.7813 26.3438,26.3906 C26.3438,25.9375 25.9531,25.5469 25.4844,25.5469 C25.2656,25.5469 25.0625,25.625 24.875,25.8125 C24.4219,26.2969 24.4219,26.2969 24.2344,26.3906 C23.8125,26.6563 23.125,26.7813 22.3594,26.7813 C20.3125,26.7813 19.0156,25.6875 19.0156,23.9844 L19.0156,22.8906 C19.0156,21.1094 20.2656,19.7969 22,19.7969 C22.5781,19.7969 23.1875,19.9531 23.6563,20.2031 C24.1406,20.4844 24.3125,20.7031 24.4063,21.1094 C24.4688,21.5156 24.5,21.6406 24.6406,21.7656 C24.7813,21.9063 25.0156,22.0156 25.2344,22.0156 C25.5,22.0156 25.7656,21.875 25.9375,21.6563 C26.0469,21.5 26.0781,21.3125 26.0781,20.8906 L26.0781,19.4688 C26.0781,19.0313 26.0625,18.9063 25.9688,18.75 C25.8125,18.4844 25.5313,18.3438 25.2344,18.3438 C24.9375,18.3438 24.7344,18.4375 24.5156,18.75 L24.3438,18.6719 Z " fill="#000000"/><text fill="#000000" font-family="sans-serif" font-size="14" lengthAdjust="spacing" textLength="175" x="36" y="27.8467">DesertificationRiskZone</text><line style="stroke:#181818;stroke-width:0.5;" x1="8" x2="213" y1="39" y2="39"/><ellipse cx="18" cy="52.6484" fill="none" rx="3" ry="3" style="stroke:#038048;stroke-width:1.0;"/><text fill="#000000" font-family="sans-serif" font-size="14" lengthAdjust="spacing" textLength="118" x="27" y="55.9951">ZoneID : Integer</text><ellipse cx="18" cy="68.9453" fill="none" rx="3" ry="3" style="stroke:#038048;stroke-width:1.0;"/><text fill="#000000" font-family="sans-serif" font-size="14" lengthAdjust="spacing" textLength="135" x="27" y="72.292">ZoneName : String</text><ellipse cx="18" cy="85.2422" fill="none" rx="3" ry="3" style="stroke:#038048;stroke-width:1.0;"/><text fill="#000000" font-family="sans-serif" font-size="14" lengthAdjust="spacing" textLength="173" x="27" y="88.5889">Coordinates : Geometry</text><line style="stroke:#181818;stroke-width:0.5;" x1="8" x2="213" y1="95.8906" y2="95.8906"/></g><!--class AssessmentCriteria--><g id="elem_AssessmentCriteria"><rect codeLine="9" fill="#F1F1F1" height="96.8906" id="AssessmentCriteria" rx="2.5" ry="2.5" style="stroke:#181818;stroke-width:0.5;" width="221" x="249" y="7"/><ellipse cx="286.05" cy="23" fill="#ADD1B2" rx="11" ry="11" style="stroke:#181818;stroke-width:1.0;"/><path d="M288.3938,18.6719 C287.4563,18.2344 286.8625,18.0938 285.9875,18.0938 C283.3625,18.0938 281.3625,20.1719 281.3625,22.8906 L281.3625,24.0156 C281.3625,26.5938 283.4719,28.4844 286.3625,28.4844 C287.5813,28.4844 288.7375,28.1875 289.4875,27.6406 C290.0656,27.2344 290.3938,26.7813 290.3938,26.3906 C290.3938,25.9375 290.0031,25.5469 289.5344,25.5469 C289.3156,25.5469 289.1125,25.625 288.925,25.8125 C288.4719,26.2969 288.4719,26.2969 288.2844,26.3906 C287.8625,26.6563 287.175,26.7813 286.4094,26.7813 C284.3625,26.7813 283.0656,25.6875 283.0656,23.9844 L283.0656,22.8906 C283.0656,21.1094 284.3156,19.7969 286.05,19.7969 C286.6281,19.7969 287.2375,19.9531 287.7063,20.2031 C288.1906,20.4844 288.3625,20.7031 288.4563,21.1094 C288.5188,21.5156 288.55,21.6406 288.6906,21.7656 C288.8313,21.9063 289.0656,22.0156 289.2844,22.0156 C289.55,22.0156 289.8156,21.875 289.9875,21.6563 C290.0969,21.5 290.1281,21.3125 290.1281,20.8906 L290.1281,19.4688 C290.1281,19.0313 290.1125,18.9063 290.0188,18.75 C289.8625,18.4844 289.5813,18.3438 289.2844,18.3438 C288.9875,18.3438 288.7844,18.4375 288.5656,18.75 L288.3938,18.6719 Z " fill="#000000"/><text fill="#000000" font-family="sans-serif" font-size="14" lengthAdjust="spacing" textLength="140" x="304.95" y="27.8467">AssessmentCriteria</text><line style="stroke:#181818;stroke-width:0.5;" x1="250" x2="469" y1="39" y2="39"/><ellipse cx="260" cy="52.6484" fill="none" rx="3" ry="3" style="stroke:#038048;stroke-width:1.0;"/><text fill="#000000" font-family="sans-serif" font-size="14" lengthAdjust="spacing" textLength="135" x="269" y="55.9951">CriteriaID : Integer</text><ellipse cx="260" cy="68.9453" fill="none" rx="3" ry="3" style="stroke:#038048;stroke-width:1.0;"/><text fill="#000000" font-family="sans-serif" font-size="14" lengthAdjust="spacing" textLength="152" x="269" y="72.292">CriteriaName : String</text><ellipse cx="260" cy="85.2422" fill="none" rx="3" ry="3" style="stroke:#038048;stroke-width:1.0;"/><text fill="#000000" font-family="sans-serif" font-size="14" lengthAdjust="spacing" textLength="195" x="269" y="88.5889">CriteriaDescription : String</text><line style="stroke:#181818;stroke-width:0.5;" x1="250" x2="469" y1="95.8906" y2="95.8906"/></g><!--class AssessmentResult--><g id="elem_AssessmentResult"><rect codeLine="15" fill="#F1F1F1" height="129.4844" id="AssessmentResult" rx="2.5" ry="2.5" style="stroke:#181818;stroke-width:0.5;" width="200" x="134.5" y="181"/><ellipse cx="166.15" cy="197" fill="#ADD1B2" rx="11" ry="11" style="stroke:#181818;stroke-width:1.0;"/><path d="M168.4938,192.6719 C167.5563,192.2344 166.9625,192.0938 166.0875,192.0938 C163.4625,192.0938 161.4625,194.1719 161.4625,196.8906 L161.4625,198.0156 C161.4625,200.5938 163.5719,202.4844 166.4625,202.4844 C167.6813,202.4844 168.8375,202.1875 169.5875,201.6406 C170.1656,201.2344 170.4938,200.7813 170.4938,200.3906 C170.4938,199.9375 170.1031,199.5469 169.6344,199.5469 C169.4156,199.5469 169.2125,199.625 169.025,199.8125 C168.5719,200.2969 168.5719,200.2969 168.3844,200.3906 C167.9625,200.6563 167.275,200.7813 166.5094,200.7813 C164.4625,200.7813 163.1656,199.6875 163.1656,197.9844 L163.1656,196.8906 C163.1656,195.1094 164.4156,193.7969 166.15,193.7969 C166.7281,193.7969 167.3375,193.9531 167.8063,194.2031 C168.2906,194.4844 168.4625,194.7031 168.5563,195.1094 C168.6188,195.5156 168.65,195.6406 168.7906,195.7656 C168.9313,195.9063 169.1656,196.0156 169.3844,196.0156 C169.65,196.0156 169.9156,195.875 170.0875,195.6563 C170.1969,195.5 170.2281,195.3125 170.2281,194.8906 L170.2281,193.4688 C170.2281,193.0313 170.2125,192.9063 170.1188,192.75 C169.9625,192.4844 169.6813,192.3438 169.3844,192.3438 C169.0875,192.3438 168.8844,192.4375 168.6656,192.75 L168.4938,192.6719 Z " fill="#000000"/><text fill="#000000" font-family="sans-serif" font-size="14" lengthAdjust="spacing" textLength="131" x="183.85" y="201.8467">AssessmentResult</text><line style="stroke:#181818;stroke-width:0.5;" x1="135.5" x2="333.5" y1="213" y2="213"/><ellipse cx="145.5" cy="226.6484" fill="none" rx="3" ry="3" style="stroke:#038048;stroke-width:1.0;"/><text fill="#000000" font-family="sans-serif" font-size="14" lengthAdjust="spacing" textLength="126" x="154.5" y="229.9951">ResultID : Integer</text><ellipse cx="145.5" cy="242.9453" fill="none" rx="3" ry="3" style="stroke:#038048;stroke-width:1.0;"/><text fill="#000000" font-family="sans-serif" font-size="14" lengthAdjust="spacing" textLength="118" x="154.5" y="246.292">ZoneID : Integer</text><ellipse cx="145.5" cy="259.2422" fill="none" rx="3" ry="3" style="stroke:#038048;stroke-width:1.0;"/><text fill="#000000" font-family="sans-serif" font-size="14" lengthAdjust="spacing" textLength="135" x="154.5" y="262.5889">CriteriaID : Integer</text><ellipse cx="145.5" cy="275.5391" fill="none" rx="3" ry="3" style="stroke:#038048;stroke-width:1.0;"/><text fill="#000000" font-family="sans-serif" font-size="14" lengthAdjust="spacing" textLength="174" x="154.5" y="278.8857">AssessmentValue : Float</text><ellipse cx="145.5" cy="291.8359" fill="none" rx="3" ry="3" style="stroke:#038048;stroke-width:1.0;"/><text fill="#000000" font-family="sans-serif" font-size="14" lengthAdjust="spacing" textLength="169" x="154.5" y="295.1826">AssessmentDate : Date</text><line style="stroke:#181818;stroke-width:0.5;" x1="135.5" x2="333.5" y1="302.4844" y2="302.4844"/></g><!--link DesertificationRiskZone to AssessmentResult--><g id="link_DesertificationRiskZone_AssessmentResult"><path codeLine="23" d="M142.111,104.427 C157.395,127.599 175.952,155.733 192.413,180.691 " fill="none" id="DesertificationRiskZone-AssessmentResult" style="stroke:#181818;stroke-width:1.0;"/><text fill="#000000" font-family="sans-serif" font-size="13" lengthAdjust="spacing" textLength="23" x="173.5" y="147.0669">has</text><text fill="#000000" font-family="sans-serif" font-size="13" lengthAdjust="spacing" textLength="8" x="137.8212" y="124.0925">1</text><text fill="#000000" font-family="sans-serif" font-size="13" lengthAdjust="spacing" textLength="10" x="177.2629" y="169.8299">M</text></g><!--link AssessmentCriteria to AssessmentResult--><g id="link_AssessmentCriteria_AssessmentResult"><path codeLine="24" d="M327.634,104.427 C312.227,127.599 293.52,155.733 276.926,180.691 " fill="none" id="AssessmentCriteria-AssessmentResult" style="stroke:#181818;stroke-width:1.0;"/><text fill="#000000" font-family="sans-serif" font-size="13" lengthAdjust="spacing" textLength="84" x="304.5" y="147.0669">evaluated by</text><text fill="#000000" font-family="sans-serif" font-size="13" lengthAdjust="spacing" textLength="8" x="314.8145" y="124.0925">1</text><text fill="#000000" font-family="sans-serif" font-size="13" lengthAdjust="spacing" textLength="10" x="271.0195" y="169.8299">M</text></g><!--SRC=[VP0nZy8m38Nt_0fVLyHmAnjg0I41Gq4tt9Ph3LYq2OeD4aBttyyHL3tHbYn9telpFVkZn3qvX7oMxgQRnMe6HMMPZMc531c3q9uAA-HTJdpwzbfoDw1h5C_B32QmT8873AswiJMglfL0xl2GK-z3ISuAiZeBz3LAk9dV_xmfCpBNw2GD91Z8DgZctiKrJX_oQMaRHQ1pRA5zCG3EaI-LDDZ7hR_7uIXTf_t_orQNc7DUUIklPgRJKIzkCT_G-9FF1CPZIDP9D_W4ZfPDpo3V5-5LSocsX9_R7m00]--></g></svg>