<?xml version="1.0" encoding="us-ascii" standalone="no"?><svg xmlns="http://www.w3.org/2000/svg" xmlns:xlink="http://www.w3.org/1999/xlink" contentStyleType="text/css" height="284px" preserveAspectRatio="none" style="width:715px;height:284px;background:#FFFFFF;" version="1.1" viewBox="0 0 715 284" width="715px" zoomAndPan="magnify"><defs/><g><!--class Region--><g id="elem_Region"><rect codeLine="3" fill="#F1F1F1" height="96.8906" id="Region" rx="2.5" ry="2.5" style="stroke:#181818;stroke-width:0.5;" width="199" x="239.5" y="7"/><ellipse cx="309.75" cy="23" fill="#ADD1B2" rx="11" ry="11" style="stroke:#181818;stroke-width:1.0;"/><path d="M312.0938,18.6719 C311.1563,18.2344 310.5625,18.0938 309.6875,18.0938 C307.0625,18.0938 305.0625,20.1719 305.0625,22.8906 L305.0625,24.0156 C305.0625,26.5938 307.1719,28.4844 310.0625,28.4844 C311.2813,28.4844 312.4375,28.1875 313.1875,27.6406 C313.7656,27.2344 314.0938,26.7813 314.0938,26.3906 C314.0938,25.9375 313.7031,25.5469 313.2344,25.5469 C313.0156,25.5469 312.8125,25.625 312.625,25.8125 C312.1719,26.2969 312.1719,26.2969 311.9844,26.3906 C311.5625,26.6563 310.875,26.7813 310.1094,26.7813 C308.0625,26.7813 306.7656,25.6875 306.7656,23.9844 L306.7656,22.8906 C306.7656,21.1094 308.0156,19.7969 309.75,19.7969 C310.3281,19.7969 310.9375,19.9531 311.4063,20.2031 C311.8906,20.4844 312.0625,20.7031 312.1563,21.1094 C312.2188,21.5156 312.25,21.6406 312.3906,21.7656 C312.5313,21.9063 312.7656,22.0156 312.9844,22.0156 C313.25,22.0156 313.5156,21.875 313.6875,21.6563 C313.7969,21.5 313.8281,21.3125 313.8281,20.8906 L313.8281,19.4688 C313.8281,19.0313 313.8125,18.9063 313.7188,18.75 C313.5625,18.4844 313.2813,18.3438 312.9844,18.3438 C312.6875,18.3438 312.4844,18.4375 312.2656,18.75 L312.0938,18.6719 Z " fill="#000000"/><text fill="#000000" font-family="sans-serif" font-size="14" lengthAdjust="spacing" textLength="50" x="330.25" y="27.8467">Region</text><line style="stroke:#181818;stroke-width:0.5;" x1="240.5" x2="437.5" y1="39" y2="39"/><ellipse cx="250.5" cy="52.6484" fill="none" rx="3" ry="3" style="stroke:#038048;stroke-width:1.0;"/><text fill="#000000" font-family="sans-serif" font-size="14" lengthAdjust="spacing" textLength="131" x="259.5" y="55.9951">RegionID : Integer</text><ellipse cx="250.5" cy="68.9453" fill="none" rx="3" ry="3" style="stroke:#038048;stroke-width:1.0;"/><text fill="#000000" font-family="sans-serif" font-size="14" lengthAdjust="spacing" textLength="148" x="259.5" y="72.292">RegionName : String</text><ellipse cx="250.5" cy="85.2422" fill="none" rx="3" ry="3" style="stroke:#038048;stroke-width:1.0;"/><text fill="#000000" font-family="sans-serif" font-size="14" lengthAdjust="spacing" textLength="173" x="259.5" y="88.5889">Coordinates : Geometry</text><line style="stroke:#181818;stroke-width:0.5;" x1="240.5" x2="437.5" y1="95.8906" y2="95.8906"/></g><!--class WaterBody--><g id="elem_WaterBody"><rect codeLine="9" fill="#F1F1F1" height="96.8906" id="WaterBody" rx="2.5" ry="2.5" style="stroke:#181818;stroke-width:0.5;" width="204" x="7" y="181"/><ellipse cx="64.75" cy="197" fill="#ADD1B2" rx="11" ry="11" style="stroke:#181818;stroke-width:1.0;"/><path d="M67.0938,192.6719 C66.1563,192.2344 65.5625,192.0938 64.6875,192.0938 C62.0625,192.0938 60.0625,194.1719 60.0625,196.8906 L60.0625,198.0156 C60.0625,200.5938 62.1719,202.4844 65.0625,202.4844 C66.2813,202.4844 67.4375,202.1875 68.1875,201.6406 C68.7656,201.2344 69.0938,200.7813 69.0938,200.3906 C69.0938,199.9375 68.7031,199.5469 68.2344,199.5469 C68.0156,199.5469 67.8125,199.625 67.625,199.8125 C67.1719,200.2969 67.1719,200.2969 66.9844,200.3906 C66.5625,200.6563 65.875,200.7813 65.1094,200.7813 C63.0625,200.7813 61.7656,199.6875 61.7656,197.9844 L61.7656,196.8906 C61.7656,195.1094 63.0156,193.7969 64.75,193.7969 C65.3281,193.7969 65.9375,193.9531 66.4063,194.2031 C66.8906,194.4844 67.0625,194.7031 67.1563,195.1094 C67.2188,195.5156 67.25,195.6406 67.3906,195.7656 C67.5313,195.9063 67.7656,196.0156 67.9844,196.0156 C68.25,196.0156 68.5156,195.875 68.6875,195.6563 C68.7969,195.5 68.8281,195.3125 68.8281,194.8906 L68.8281,193.4688 C68.8281,193.0313 68.8125,192.9063 68.7188,192.75 C68.5625,192.4844 68.2813,192.3438 67.9844,192.3438 C67.6875,192.3438 67.4844,192.4375 67.2656,192.75 L67.0938,192.6719 Z " fill="#000000"/><text fill="#000000" font-family="sans-serif" font-size="14" lengthAdjust="spacing" textLength="80" x="85.25" y="201.8467">WaterBody</text><line style="stroke:#181818;stroke-width:0.5;" x1="8" x2="210" y1="213" y2="213"/><ellipse cx="18" cy="226.6484" fill="none" rx="3" ry="3" style="stroke:#038048;stroke-width:1.0;"/><text fill="#000000" font-family="sans-serif" font-size="14" lengthAdjust="spacing" textLength="161" x="27" y="229.9951">WaterBodyID : Integer</text><ellipse cx="18" cy="242.9453" fill="none" rx="3" ry="3" style="stroke:#038048;stroke-width:1.0;"/><text fill="#000000" font-family="sans-serif" font-size="14" lengthAdjust="spacing" textLength="178" x="27" y="246.292">WaterBodyName : String</text><ellipse cx="18" cy="259.2422" fill="none" rx="3" ry="3" style="stroke:#038048;stroke-width:1.0;"/><text fill="#000000" font-family="sans-serif" font-size="14" lengthAdjust="spacing" textLength="173" x="27" y="262.5889">Coordinates : Geometry</text><line style="stroke:#181818;stroke-width:0.5;" x1="8" x2="210" y1="269.8906" y2="269.8906"/></g><!--class SoilType--><g id="elem_SoilType"><rect codeLine="15" fill="#F1F1F1" height="80.5938" id="SoilType" rx="2.5" ry="2.5" style="stroke:#181818;stroke-width:0.5;" width="186" x="246" y="189"/><ellipse cx="303.75" cy="205" fill="#ADD1B2" rx="11" ry="11" style="stroke:#181818;stroke-width:1.0;"/><path d="M306.0938,200.6719 C305.1563,200.2344 304.5625,200.0938 303.6875,200.0938 C301.0625,200.0938 299.0625,202.1719 299.0625,204.8906 L299.0625,206.0156 C299.0625,208.5938 301.1719,210.4844 304.0625,210.4844 C305.2813,210.4844 306.4375,210.1875 307.1875,209.6406 C307.7656,209.2344 308.0938,208.7813 308.0938,208.3906 C308.0938,207.9375 307.7031,207.5469 307.2344,207.5469 C307.0156,207.5469 306.8125,207.625 306.625,207.8125 C306.1719,208.2969 306.1719,208.2969 305.9844,208.3906 C305.5625,208.6563 304.875,208.7813 304.1094,208.7813 C302.0625,208.7813 300.7656,207.6875 300.7656,205.9844 L300.7656,204.8906 C300.7656,203.1094 302.0156,201.7969 303.75,201.7969 C304.3281,201.7969 304.9375,201.9531 305.4063,202.2031 C305.8906,202.4844 306.0625,202.7031 306.1563,203.1094 C306.2188,203.5156 306.25,203.6406 306.3906,203.7656 C306.5313,203.9063 306.7656,204.0156 306.9844,204.0156 C307.25,204.0156 307.5156,203.875 307.6875,203.6563 C307.7969,203.5 307.8281,203.3125 307.8281,202.8906 L307.8281,201.4688 C307.8281,201.0313 307.8125,200.9063 307.7188,200.75 C307.5625,200.4844 307.2813,200.3438 306.9844,200.3438 C306.6875,200.3438 306.4844,200.4375 306.2656,200.75 L306.0938,200.6719 Z " fill="#000000"/><text fill="#000000" font-family="sans-serif" font-size="14" lengthAdjust="spacing" textLength="62" x="324.25" y="209.8467">SoilType</text><line style="stroke:#181818;stroke-width:0.5;" x1="247" x2="431" y1="221" y2="221"/><ellipse cx="257" cy="234.6484" fill="none" rx="3" ry="3" style="stroke:#038048;stroke-width:1.0;"/><text fill="#000000" font-family="sans-serif" font-size="14" lengthAdjust="spacing" textLength="143" x="266" y="237.9951">SoilTypeID : Integer</text><ellipse cx="257" cy="250.9453" fill="none" rx="3" ry="3" style="stroke:#038048;stroke-width:1.0;"/><text fill="#000000" font-family="sans-serif" font-size="14" lengthAdjust="spacing" textLength="160" x="266" y="254.292">SoilTypeName : String</text><line style="stroke:#181818;stroke-width:0.5;" x1="247" x2="431" y1="261.5938" y2="261.5938"/></g><!--class VegetationType--><g id="elem_VegetationType"><rect codeLine="20" fill="#F1F1F1" height="80.5938" id="VegetationType" rx="2.5" ry="2.5" style="stroke:#181818;stroke-width:0.5;" width="241" x="467.5" y="189"/><ellipse cx="525.25" cy="205" fill="#ADD1B2" rx="11" ry="11" style="stroke:#181818;stroke-width:1.0;"/><path d="M527.5938,200.6719 C526.6563,200.2344 526.0625,200.0938 525.1875,200.0938 C522.5625,200.0938 520.5625,202.1719 520.5625,204.8906 L520.5625,206.0156 C520.5625,208.5938 522.6719,210.4844 525.5625,210.4844 C526.7813,210.4844 527.9375,210.1875 528.6875,209.6406 C529.2656,209.2344 529.5938,208.7813 529.5938,208.3906 C529.5938,207.9375 529.2031,207.5469 528.7344,207.5469 C528.5156,207.5469 528.3125,207.625 528.125,207.8125 C527.6719,208.2969 527.6719,208.2969 527.4844,208.3906 C527.0625,208.6563 526.375,208.7813 525.6094,208.7813 C523.5625,208.7813 522.2656,207.6875 522.2656,205.9844 L522.2656,204.8906 C522.2656,203.1094 523.5156,201.7969 525.25,201.7969 C525.8281,201.7969 526.4375,201.9531 526.9063,202.2031 C527.3906,202.4844 527.5625,202.7031 527.6563,203.1094 C527.7188,203.5156 527.75,203.6406 527.8906,203.7656 C528.0313,203.9063 528.2656,204.0156 528.4844,204.0156 C528.75,204.0156 529.0156,203.875 529.1875,203.6563 C529.2969,203.5 529.3281,203.3125 529.3281,202.8906 L529.3281,201.4688 C529.3281,201.0313 529.3125,200.9063 529.2188,200.75 C529.0625,200.4844 528.7813,200.3438 528.4844,200.3438 C528.1875,200.3438 527.9844,200.4375 527.7656,200.75 L527.5938,200.6719 Z " fill="#000000"/><text fill="#000000" font-family="sans-serif" font-size="14" lengthAdjust="spacing" textLength="117" x="545.75" y="209.8467">VegetationType</text><line style="stroke:#181818;stroke-width:0.5;" x1="468.5" x2="707.5" y1="221" y2="221"/><ellipse cx="478.5" cy="234.6484" fill="none" rx="3" ry="3" style="stroke:#038048;stroke-width:1.0;"/><text fill="#000000" font-family="sans-serif" font-size="14" lengthAdjust="spacing" textLength="198" x="487.5" y="237.9951">VegetationTypeID : Integer</text><ellipse cx="478.5" cy="250.9453" fill="none" rx="3" ry="3" style="stroke:#038048;stroke-width:1.0;"/><text fill="#000000" font-family="sans-serif" font-size="14" lengthAdjust="spacing" textLength="215" x="487.5" y="254.292">VegetationTypeName : String</text><line style="stroke:#181818;stroke-width:0.5;" x1="468.5" x2="707.5" y1="261.5938" y2="261.5938"/></g><!--link Region to WaterBody--><g id="link_Region_WaterBody"><path codeLine="25" d="M275.238,104.183 C243.331,128.044 204.81,156.851 172.886,180.7241 " fill="none" id="Region-WaterBody" style="stroke:#181818;stroke-width:1.0;"/><text fill="#000000" font-family="sans-serif" font-size="13" lengthAdjust="spacing" textLength="54" x="232" y="147.0669">contains</text><text fill="#000000" font-family="sans-serif" font-size="13" lengthAdjust="spacing" textLength="8" x="258.1325" y="123.8158">1</text><text fill="#000000" font-family="sans-serif" font-size="13" lengthAdjust="spacing" textLength="10" x="171.1668" y="169.8941">M</text></g><!--link Region to SoilType--><g id="link_Region_SoilType"><path codeLine="26" d="M339,104.412 C339,131.051 339,163.801 339,188.9655 " fill="none" id="Region-SoilType" style="stroke:#181818;stroke-width:1.0;"/><text fill="#000000" font-family="sans-serif" font-size="13" lengthAdjust="spacing" textLength="54" x="340" y="147.0669">contains</text><text fill="#000000" font-family="sans-serif" font-size="13" lengthAdjust="spacing" textLength="8" x="330.4625" y="124.0755">1</text><text fill="#000000" font-family="sans-serif" font-size="13" lengthAdjust="spacing" textLength="10" x="328.1406" y="177.8234">M</text></g><!--link Region to VegetationType--><g id="link_Region_VegetationType"><path codeLine="27" d="M408.03,104.183 C446.602,130.827 494.103,163.64 530.618,188.8626 " fill="none" id="Region-VegetationType" style="stroke:#181818;stroke-width:1.0;"/><text fill="#000000" font-family="sans-serif" font-size="13" lengthAdjust="spacing" textLength="54" x="472" y="147.0669">contains</text><text fill="#000000" font-family="sans-serif" font-size="13" lengthAdjust="spacing" textLength="8" x="408.7684" y="123.8158">1</text><text fill="#000000" font-family="sans-serif" font-size="13" lengthAdjust="spacing" textLength="10" x="510.286" y="178.0018">M</text></g><!--SRC=[dP0n3u8m48Nt_egpgs5mPLCan4GPWEZSm4cQG6lQBiJutsr22gqr3dQxzrxUrxjDXtSk4AeyQ_PbSSwX7PZMXAn2XJsN0fu4xDlEq-a8APo4mHwLhvTiHElKHd7HpqOcfUguO0QrTGgK8neraPUFk5bN7MGtESeYnA35-fDLIpuqqmCToiqnoJaXA2YxshHXncxkLuPgN1pwSVrySBgZa2H0BzIxJmgj58PneR_4bjL-fZx-l6RV]--></g></svg>