<?xml version="1.0" encoding="us-ascii" standalone="no"?><svg xmlns="http://www.w3.org/2000/svg" xmlns:xlink="http://www.w3.org/1999/xlink" contentStyleType="text/css" height="442px" preserveAspectRatio="none" style="width:427px;height:442px;background:#FFFFFF;" version="1.1" viewBox="0 0 427 442" width="427px" zoomAndPan="magnify"><defs/><g><!--class User--><g id="elem_User"><rect codeLine="3" fill="#F1F1F1" height="96.8906" id="User" rx="2.5" ry="2.5" style="stroke:#181818;stroke-width:0.5;" width="183" x="79" y="7"/><ellipse cx="150.75" cy="23" fill="#ADD1B2" rx="11" ry="11" style="stroke:#181818;stroke-width:1.0;"/><path d="M153.0938,18.6719 C152.1563,18.2344 151.5625,18.0938 150.6875,18.0938 C148.0625,18.0938 146.0625,20.1719 146.0625,22.8906 L146.0625,24.0156 C146.0625,26.5938 148.1719,28.4844 151.0625,28.4844 C152.2813,28.4844 153.4375,28.1875 154.1875,27.6406 C154.7656,27.2344 155.0938,26.7813 155.0938,26.3906 C155.0938,25.9375 154.7031,25.5469 154.2344,25.5469 C154.0156,25.5469 153.8125,25.625 153.625,25.8125 C153.1719,26.2969 153.1719,26.2969 152.9844,26.3906 C152.5625,26.6563 151.875,26.7813 151.1094,26.7813 C149.0625,26.7813 147.7656,25.6875 147.7656,23.9844 L147.7656,22.8906 C147.7656,21.1094 149.0156,19.7969 150.75,19.7969 C151.3281,19.7969 151.9375,19.9531 152.4063,20.2031 C152.8906,20.4844 153.0625,20.7031 153.1563,21.1094 C153.2188,21.5156 153.25,21.6406 153.3906,21.7656 C153.5313,21.9063 153.7656,22.0156 153.9844,22.0156 C154.25,22.0156 154.5156,21.875 154.6875,21.6563 C154.7969,21.5 154.8281,21.3125 154.8281,20.8906 L154.8281,19.4688 C154.8281,19.0313 154.8125,18.9063 154.7188,18.75 C154.5625,18.4844 154.2813,18.3438 153.9844,18.3438 C153.6875,18.3438 153.4844,18.4375 153.2656,18.75 L153.0938,18.6719 Z " fill="#000000"/><text fill="#000000" font-family="sans-serif" font-size="14" lengthAdjust="spacing" textLength="31" x="171.25" y="27.8467">User</text><line style="stroke:#181818;stroke-width:0.5;" x1="80" x2="261" y1="39" y2="39"/><ellipse cx="90" cy="52.6484" fill="none" rx="3" ry="3" style="stroke:#038048;stroke-width:1.0;"/><text fill="#000000" font-family="sans-serif" font-size="14" lengthAdjust="spacing" textLength="112" x="99" y="55.9951">UserID : Integer</text><ellipse cx="90" cy="68.9453" fill="none" rx="3" ry="3" style="stroke:#038048;stroke-width:1.0;"/><text fill="#000000" font-family="sans-serif" font-size="14" lengthAdjust="spacing" textLength="129" x="99" y="72.292">UserName : String</text><ellipse cx="90" cy="85.2422" fill="none" rx="3" ry="3" style="stroke:#038048;stroke-width:1.0;"/><text fill="#000000" font-family="sans-serif" font-size="14" lengthAdjust="spacing" textLength="157" x="99" y="88.5889">PasswordHash : String</text><line style="stroke:#181818;stroke-width:0.5;" x1="80" x2="261" y1="95.8906" y2="95.8906"/></g><!--class AuthenticationToken--><g id="elem_AuthenticationToken"><rect codeLine="9" fill="#F1F1F1" height="96.8906" id="AuthenticationToken" rx="2.5" ry="2.5" style="stroke:#181818;stroke-width:0.5;" width="185" x="7" y="181"/><ellipse cx="22" cy="197" fill="#ADD1B2" rx="11" ry="11" style="stroke:#181818;stroke-width:1.0;"/><path d="M24.3438,192.6719 C23.4063,192.2344 22.8125,192.0938 21.9375,192.0938 C19.3125,192.0938 17.3125,194.1719 17.3125,196.8906 L17.3125,198.0156 C17.3125,200.5938 19.4219,202.4844 22.3125,202.4844 C23.5313,202.4844 24.6875,202.1875 25.4375,201.6406 C26.0156,201.2344 26.3438,200.7813 26.3438,200.3906 C26.3438,199.9375 25.9531,199.5469 25.4844,199.5469 C25.2656,199.5469 25.0625,199.625 24.875,199.8125 C24.4219,200.2969 24.4219,200.2969 24.2344,200.3906 C23.8125,200.6563 23.125,200.7813 22.3594,200.7813 C20.3125,200.7813 19.0156,199.6875 19.0156,197.9844 L19.0156,196.8906 C19.0156,195.1094 20.2656,193.7969 22,193.7969 C22.5781,193.7969 23.1875,193.9531 23.6563,194.2031 C24.1406,194.4844 24.3125,194.7031 24.4063,195.1094 C24.4688,195.5156 24.5,195.6406 24.6406,195.7656 C24.7813,195.9063 25.0156,196.0156 25.2344,196.0156 C25.5,196.0156 25.7656,195.875 25.9375,195.6563 C26.0469,195.5 26.0781,195.3125 26.0781,194.8906 L26.0781,193.4688 C26.0781,193.0313 26.0625,192.9063 25.9688,192.75 C25.8125,192.4844 25.5313,192.3438 25.2344,192.3438 C24.9375,192.3438 24.7344,192.4375 24.5156,192.75 L24.3438,192.6719 Z " fill="#000000"/><text fill="#000000" font-family="sans-serif" font-size="14" lengthAdjust="spacing" textLength="153" x="36" y="201.8467">AuthenticationToken</text><line style="stroke:#181818;stroke-width:0.5;" x1="8" x2="191" y1="213" y2="213"/><ellipse cx="18" cy="226.6484" fill="none" rx="3" ry="3" style="stroke:#038048;stroke-width:1.0;"/><text fill="#000000" font-family="sans-serif" font-size="14" lengthAdjust="spacing" textLength="126" x="27" y="229.9951">TokenID : Integer</text><ellipse cx="18" cy="242.9453" fill="none" rx="3" ry="3" style="stroke:#038048;stroke-width:1.0;"/><text fill="#000000" font-family="sans-serif" font-size="14" lengthAdjust="spacing" textLength="141" x="27" y="246.292">TokenValue : String</text><ellipse cx="18" cy="259.2422" fill="none" rx="3" ry="3" style="stroke:#038048;stroke-width:1.0;"/><text fill="#000000" font-family="sans-serif" font-size="14" lengthAdjust="spacing" textLength="128" x="27" y="262.5889">ExpiryDate : Date</text><line style="stroke:#181818;stroke-width:0.5;" x1="8" x2="191" y1="269.8906" y2="269.8906"/></g><!--class AccessControlList--><g id="elem_AccessControlList"><rect codeLine="15" fill="#F1F1F1" height="80.5938" id="AccessControlList" rx="2.5" ry="2.5" style="stroke:#181818;stroke-width:0.5;" width="185" x="227" y="189"/><ellipse cx="252.8" cy="205" fill="#ADD1B2" rx="11" ry="11" style="stroke:#181818;stroke-width:1.0;"/><path d="M255.1438,200.6719 C254.2063,200.2344 253.6125,200.0938 252.7375,200.0938 C250.1125,200.0938 248.1125,202.1719 248.1125,204.8906 L248.1125,206.0156 C248.1125,208.5938 250.2219,210.4844 253.1125,210.4844 C254.3313,210.4844 255.4875,210.1875 256.2375,209.6406 C256.8156,209.2344 257.1438,208.7813 257.1438,208.3906 C257.1438,207.9375 256.7531,207.5469 256.2844,207.5469 C256.0656,207.5469 255.8625,207.625 255.675,207.8125 C255.2219,208.2969 255.2219,208.2969 255.0344,208.3906 C254.6125,208.6563 253.925,208.7813 253.1594,208.7813 C251.1125,208.7813 249.8156,207.6875 249.8156,205.9844 L249.8156,204.8906 C249.8156,203.1094 251.0656,201.7969 252.8,201.7969 C253.3781,201.7969 253.9875,201.9531 254.4563,202.2031 C254.9406,202.4844 255.1125,202.7031 255.2063,203.1094 C255.2688,203.5156 255.3,203.6406 255.4406,203.7656 C255.5813,203.9063 255.8156,204.0156 256.0344,204.0156 C256.3,204.0156 256.5656,203.875 256.7375,203.6563 C256.8469,203.5 256.8781,203.3125 256.8781,202.8906 L256.8781,201.4688 C256.8781,201.0313 256.8625,200.9063 256.7688,200.75 C256.6125,200.4844 256.3313,200.3438 256.0344,200.3438 C255.7375,200.3438 255.5344,200.4375 255.3156,200.75 L255.1438,200.6719 Z " fill="#000000"/><text fill="#000000" font-family="sans-serif" font-size="14" lengthAdjust="spacing" textLength="129" x="269.2" y="209.8467">AccessControlList</text><line style="stroke:#181818;stroke-width:0.5;" x1="228" x2="411" y1="221" y2="221"/><ellipse cx="238" cy="234.6484" fill="none" rx="3" ry="3" style="stroke:#038048;stroke-width:1.0;"/><text fill="#000000" font-family="sans-serif" font-size="14" lengthAdjust="spacing" textLength="109" x="247" y="237.9951">ACLID : Integer</text><ellipse cx="238" cy="250.9453" fill="none" rx="3" ry="3" style="stroke:#038048;stroke-width:1.0;"/><text fill="#000000" font-family="sans-serif" font-size="14" lengthAdjust="spacing" textLength="159" x="247" y="254.292">PermissionID : Integer</text><line style="stroke:#181818;stroke-width:0.5;" x1="228" x2="411" y1="261.5938" y2="261.5938"/></g><!--class Permission--><g id="elem_Permission"><rect codeLine="20" fill="#F1F1F1" height="80.5938" id="Permission" rx="2.5" ry="2.5" style="stroke:#181818;stroke-width:0.5;" width="202" x="218.5" y="355"/><ellipse cx="276.25" cy="371" fill="#ADD1B2" rx="11" ry="11" style="stroke:#181818;stroke-width:1.0;"/><path d="M278.5938,366.6719 C277.6563,366.2344 277.0625,366.0938 276.1875,366.0938 C273.5625,366.0938 271.5625,368.1719 271.5625,370.8906 L271.5625,372.0156 C271.5625,374.5938 273.6719,376.4844 276.5625,376.4844 C277.7813,376.4844 278.9375,376.1875 279.6875,375.6406 C280.2656,375.2344 280.5938,374.7813 280.5938,374.3906 C280.5938,373.9375 280.2031,373.5469 279.7344,373.5469 C279.5156,373.5469 279.3125,373.625 279.125,373.8125 C278.6719,374.2969 278.6719,374.2969 278.4844,374.3906 C278.0625,374.6563 277.375,374.7813 276.6094,374.7813 C274.5625,374.7813 273.2656,373.6875 273.2656,371.9844 L273.2656,370.8906 C273.2656,369.1094 274.5156,367.7969 276.25,367.7969 C276.8281,367.7969 277.4375,367.9531 277.9063,368.2031 C278.3906,368.4844 278.5625,368.7031 278.6563,369.1094 C278.7188,369.5156 278.75,369.6406 278.8906,369.7656 C279.0313,369.9063 279.2656,370.0156 279.4844,370.0156 C279.75,370.0156 280.0156,369.875 280.1875,369.6563 C280.2969,369.5 280.3281,369.3125 280.3281,368.8906 L280.3281,367.4688 C280.3281,367.0313 280.3125,366.9063 280.2188,366.75 C280.0625,366.4844 279.7813,366.3438 279.4844,366.3438 C279.1875,366.3438 278.9844,366.4375 278.7656,366.75 L278.5938,366.6719 Z " fill="#000000"/><text fill="#000000" font-family="sans-serif" font-size="14" lengthAdjust="spacing" textLength="78" x="296.75" y="375.8467">Permission</text><line style="stroke:#181818;stroke-width:0.5;" x1="219.5" x2="419.5" y1="387" y2="387"/><ellipse cx="229.5" cy="400.6484" fill="none" rx="3" ry="3" style="stroke:#038048;stroke-width:1.0;"/><text fill="#000000" font-family="sans-serif" font-size="14" lengthAdjust="spacing" textLength="159" x="238.5" y="403.9951">PermissionID : Integer</text><ellipse cx="229.5" cy="416.9453" fill="none" rx="3" ry="3" style="stroke:#038048;stroke-width:1.0;"/><text fill="#000000" font-family="sans-serif" font-size="14" lengthAdjust="spacing" textLength="176" x="238.5" y="420.292">PermissionName : String</text><line style="stroke:#181818;stroke-width:0.5;" x1="219.5" x2="419.5" y1="427.5938" y2="427.5938"/></g><!--link User to AuthenticationToken--><g id="link_User_AuthenticationToken"><path codeLine="25" d="M150.723,104.412 C140.875,128.268 129.004,157.024 119.171,180.845 " fill="none" id="User-AuthenticationToken" style="stroke:#181818;stroke-width:1.0;"/><text fill="#000000" font-family="sans-serif" font-size="13" lengthAdjust="spacing" textLength="23" x="137.5" y="147.0669">has</text><text fill="#000000" font-family="sans-serif" font-size="13" lengthAdjust="spacing" textLength="8" x="139.528" y="124.0755">1</text><text fill="#000000" font-family="sans-serif" font-size="13" lengthAdjust="spacing" textLength="10" x="111.2341" y="170.0321">M</text></g><!--link User to AccessControlList--><g id="link_User_AccessControlList"><path codeLine="26" d="M212.005,104.412 C235.082,131.051 263.453,163.801 285.252,188.966 " fill="none" id="User-AccessControlList" style="stroke:#181818;stroke-width:1.0;"/><text fill="#000000" font-family="sans-serif" font-size="13" lengthAdjust="spacing" textLength="23" x="249.5" y="147.0669">has</text><text fill="#000000" font-family="sans-serif" font-size="13" lengthAdjust="spacing" textLength="8" x="209.0447" y="124.0755">1</text><text fill="#000000" font-family="sans-serif" font-size="13" lengthAdjust="spacing" textLength="10" x="268.5063" y="177.8234">M</text></g><!--link AccessControlList to Permission--><g id="link_AccessControlList_Permission"><path codeLine="27" d="M319.5,270.2 C319.5,295.89 319.5,329.208 319.5,354.8819 " fill="none" id="AccessControlList-Permission" style="stroke:#181818;stroke-width:1.0;"/><text fill="#000000" font-family="sans-serif" font-size="13" lengthAdjust="spacing" textLength="56" x="320.5" y="321.0669">specifies</text><text fill="#000000" font-family="sans-serif" font-size="13" lengthAdjust="spacing" textLength="10" x="308.7344" y="289.6888">M</text><text fill="#000000" font-family="sans-serif" font-size="13" lengthAdjust="spacing" textLength="8" x="310.8375" y="344.0239">1</text></g><!--SRC=[TL31Ri8m3BttAxnUKG-xzbQLYY6L2Z7OFKeDjIX95GSDDEtVbnHLfGtB9V5xp-yvVglnI0fXL-Jxh5gL1SXMC4VH21mO3Vn4uCx2lzTBI66jB9xGZ6WbBkZmJsj8dHxmrXbzQrD_26v6wlVPExlQ1fKbAInfjTTdL4DKNuHPFVmbskiyhRXrPEvBOJtXhrcIbCYSQsMDRajYE-HaUHccRD5SYDdDDE4cZgDciFgdQyPDD-Ki-mN7xp4a2SIR-ELIKcW4XyhWKmzTY7krRtAzJtEdm1rAEXBo7m00]--></g></svg>