<?xml version="1.0" encoding="us-ascii" standalone="no"?><svg xmlns="http://www.w3.org/2000/svg" xmlns:xlink="http://www.w3.org/1999/xlink" contentStyleType="text/css" height="523px" preserveAspectRatio="none" style="width:574px;height:523px;background:#FFFFFF;" version="1.1" viewBox="0 0 574 523" width="574px" zoomAndPan="magnify"><defs/><g><!--class MonitoringEvent--><g id="elem_MonitoringEvent"><rect codeLine="3" fill="#F1F1F1" height="113.1875" id="MonitoringEvent" rx="2.5" ry="2.5" style="stroke:#181818;stroke-width:0.5;" width="188" x="273.5" y="181"/><ellipse cx="304.7" cy="197" fill="#ADD1B2" rx="11" ry="11" style="stroke:#181818;stroke-width:1.0;"/><path d="M307.0438,192.6719 C306.1063,192.2344 305.5125,192.0938 304.6375,192.0938 C302.0125,192.0938 300.0125,194.1719 300.0125,196.8906 L300.0125,198.0156 C300.0125,200.5938 302.1219,202.4844 305.0125,202.4844 C306.2313,202.4844 307.3875,202.1875 308.1375,201.6406 C308.7156,201.2344 309.0438,200.7813 309.0438,200.3906 C309.0438,199.9375 308.6531,199.5469 308.1844,199.5469 C307.9656,199.5469 307.7625,199.625 307.575,199.8125 C307.1219,200.2969 307.1219,200.2969 306.9344,200.3906 C306.5125,200.6563 305.825,200.7813 305.0594,200.7813 C303.0125,200.7813 301.7156,199.6875 301.7156,197.9844 L301.7156,196.8906 C301.7156,195.1094 302.9656,193.7969 304.7,193.7969 C305.2781,193.7969 305.8875,193.9531 306.3563,194.2031 C306.8406,194.4844 307.0125,194.7031 307.1063,195.1094 C307.1688,195.5156 307.2,195.6406 307.3406,195.7656 C307.4813,195.9063 307.7156,196.0156 307.9344,196.0156 C308.2,196.0156 308.4656,195.875 308.6375,195.6563 C308.7469,195.5 308.7781,195.3125 308.7781,194.8906 L308.7781,193.4688 C308.7781,193.0313 308.7625,192.9063 308.6688,192.75 C308.5125,192.4844 308.2313,192.3438 307.9344,192.3438 C307.6375,192.3438 307.4344,192.4375 307.2156,192.75 L307.0438,192.6719 Z " fill="#000000"/><text fill="#000000" font-family="sans-serif" font-size="14" lengthAdjust="spacing" textLength="120" x="322.3" y="201.8467">MonitoringEvent</text><line style="stroke:#181818;stroke-width:0.5;" x1="274.5" x2="460.5" y1="213" y2="213"/><ellipse cx="284.5" cy="226.6484" fill="none" rx="3" ry="3" style="stroke:#038048;stroke-width:1.0;"/><text fill="#000000" font-family="sans-serif" font-size="14" lengthAdjust="spacing" textLength="123" x="293.5" y="229.9951">EventID : Integer</text><ellipse cx="284.5" cy="242.9453" fill="none" rx="3" ry="3" style="stroke:#038048;stroke-width:1.0;"/><text fill="#000000" font-family="sans-serif" font-size="14" lengthAdjust="spacing" textLength="140" x="293.5" y="246.292">EventName : String</text><ellipse cx="284.5" cy="259.2422" fill="none" rx="3" ry="3" style="stroke:#038048;stroke-width:1.0;"/><text fill="#000000" font-family="sans-serif" font-size="14" lengthAdjust="spacing" textLength="125" x="293.5" y="262.5889">EventDate : Date</text><ellipse cx="284.5" cy="275.5391" fill="none" rx="3" ry="3" style="stroke:#038048;stroke-width:1.0;"/><text fill="#000000" font-family="sans-serif" font-size="14" lengthAdjust="spacing" textLength="162" x="293.5" y="278.8857">ConductedBy : Integer</text><line style="stroke:#181818;stroke-width:0.5;" x1="274.5" x2="460.5" y1="286.1875" y2="286.1875"/></g><!--class EvaluationCriterion--><g id="elem_EvaluationCriterion"><rect codeLine="10" fill="#F1F1F1" height="96.8906" id="EvaluationCriterion" rx="2.5" ry="2.5" style="stroke:#181818;stroke-width:0.5;" width="231" x="7" y="189"/><ellipse cx="49.45" cy="205" fill="#ADD1B2" rx="11" ry="11" style="stroke:#181818;stroke-width:1.0;"/><path d="M51.7938,200.6719 C50.8563,200.2344 50.2625,200.0938 49.3875,200.0938 C46.7625,200.0938 44.7625,202.1719 44.7625,204.8906 L44.7625,206.0156 C44.7625,208.5938 46.8719,210.4844 49.7625,210.4844 C50.9813,210.4844 52.1375,210.1875 52.8875,209.6406 C53.4656,209.2344 53.7938,208.7813 53.7938,208.3906 C53.7938,207.9375 53.4031,207.5469 52.9344,207.5469 C52.7156,207.5469 52.5125,207.625 52.325,207.8125 C51.8719,208.2969 51.8719,208.2969 51.6844,208.3906 C51.2625,208.6563 50.575,208.7813 49.8094,208.7813 C47.7625,208.7813 46.4656,207.6875 46.4656,205.9844 L46.4656,204.8906 C46.4656,203.1094 47.7156,201.7969 49.45,201.7969 C50.0281,201.7969 50.6375,201.9531 51.1063,202.2031 C51.5906,202.4844 51.7625,202.7031 51.8563,203.1094 C51.9188,203.5156 51.95,203.6406 52.0906,203.7656 C52.2313,203.9063 52.4656,204.0156 52.6844,204.0156 C52.95,204.0156 53.2156,203.875 53.3875,203.6563 C53.4969,203.5 53.5281,203.3125 53.5281,202.8906 L53.5281,201.4688 C53.5281,201.0313 53.5125,200.9063 53.4188,200.75 C53.2625,200.4844 52.9813,200.3438 52.6844,200.3438 C52.3875,200.3438 52.1844,200.4375 51.9656,200.75 L51.7938,200.6719 Z " fill="#000000"/><text fill="#000000" font-family="sans-serif" font-size="14" lengthAdjust="spacing" textLength="138" x="69.55" y="209.8467">EvaluationCriterion</text><line style="stroke:#181818;stroke-width:0.5;" x1="8" x2="237" y1="221" y2="221"/><ellipse cx="18" cy="234.6484" fill="none" rx="3" ry="3" style="stroke:#038048;stroke-width:1.0;"/><text fill="#000000" font-family="sans-serif" font-size="14" lengthAdjust="spacing" textLength="145" x="27" y="237.9951">CriterionID : Integer</text><ellipse cx="18" cy="250.9453" fill="none" rx="3" ry="3" style="stroke:#038048;stroke-width:1.0;"/><text fill="#000000" font-family="sans-serif" font-size="14" lengthAdjust="spacing" textLength="162" x="27" y="254.292">CriterionName : String</text><ellipse cx="18" cy="267.2422" fill="none" rx="3" ry="3" style="stroke:#038048;stroke-width:1.0;"/><text fill="#000000" font-family="sans-serif" font-size="14" lengthAdjust="spacing" textLength="205" x="27" y="270.5889">CriterionDescription : String</text><line style="stroke:#181818;stroke-width:0.5;" x1="8" x2="237" y1="277.8906" y2="277.8906"/></g><!--class EvaluationResult--><g id="elem_EvaluationResult"><rect codeLine="16" fill="#F1F1F1" height="145.7813" id="EvaluationResult" rx="2.5" ry="2.5" style="stroke:#181818;stroke-width:0.5;" width="190" x="272.5" y="371"/><ellipse cx="305.05" cy="387" fill="#ADD1B2" rx="11" ry="11" style="stroke:#181818;stroke-width:1.0;"/><path d="M307.3938,382.6719 C306.4563,382.2344 305.8625,382.0938 304.9875,382.0938 C302.3625,382.0938 300.3625,384.1719 300.3625,386.8906 L300.3625,388.0156 C300.3625,390.5938 302.4719,392.4844 305.3625,392.4844 C306.5813,392.4844 307.7375,392.1875 308.4875,391.6406 C309.0656,391.2344 309.3938,390.7813 309.3938,390.3906 C309.3938,389.9375 309.0031,389.5469 308.5344,389.5469 C308.3156,389.5469 308.1125,389.625 307.925,389.8125 C307.4719,390.2969 307.4719,390.2969 307.2844,390.3906 C306.8625,390.6563 306.175,390.7813 305.4094,390.7813 C303.3625,390.7813 302.0656,389.6875 302.0656,387.9844 L302.0656,386.8906 C302.0656,385.1094 303.3156,383.7969 305.05,383.7969 C305.6281,383.7969 306.2375,383.9531 306.7063,384.2031 C307.1906,384.4844 307.3625,384.7031 307.4563,385.1094 C307.5188,385.5156 307.55,385.6406 307.6906,385.7656 C307.8313,385.9063 308.0656,386.0156 308.2844,386.0156 C308.55,386.0156 308.8156,385.875 308.9875,385.6563 C309.0969,385.5 309.1281,385.3125 309.1281,384.8906 L309.1281,383.4688 C309.1281,383.0313 309.1125,382.9063 309.0188,382.75 C308.8625,382.4844 308.5813,382.3438 308.2844,382.3438 C307.9875,382.3438 307.7844,382.4375 307.5656,382.75 L307.3938,382.6719 Z " fill="#000000"/><text fill="#000000" font-family="sans-serif" font-size="14" lengthAdjust="spacing" textLength="119" x="322.95" y="391.8467">EvaluationResult</text><line style="stroke:#181818;stroke-width:0.5;" x1="273.5" x2="461.5" y1="403" y2="403"/><ellipse cx="283.5" cy="416.6484" fill="none" rx="3" ry="3" style="stroke:#038048;stroke-width:1.0;"/><text fill="#000000" font-family="sans-serif" font-size="14" lengthAdjust="spacing" textLength="126" x="292.5" y="419.9951">ResultID : Integer</text><ellipse cx="283.5" cy="432.9453" fill="none" rx="3" ry="3" style="stroke:#038048;stroke-width:1.0;"/><text fill="#000000" font-family="sans-serif" font-size="14" lengthAdjust="spacing" textLength="123" x="292.5" y="436.292">EventID : Integer</text><ellipse cx="283.5" cy="449.2422" fill="none" rx="3" ry="3" style="stroke:#038048;stroke-width:1.0;"/><text fill="#000000" font-family="sans-serif" font-size="14" lengthAdjust="spacing" textLength="145" x="292.5" y="452.5889">CriterionID : Integer</text><ellipse cx="283.5" cy="465.5391" fill="none" rx="3" ry="3" style="stroke:#038048;stroke-width:1.0;"/><text fill="#000000" font-family="sans-serif" font-size="14" lengthAdjust="spacing" textLength="164" x="292.5" y="468.8857">EvaluationScore : Float</text><ellipse cx="283.5" cy="481.8359" fill="none" rx="3" ry="3" style="stroke:#038048;stroke-width:1.0;"/><text fill="#000000" font-family="sans-serif" font-size="14" lengthAdjust="spacing" textLength="157" x="292.5" y="485.1826">EvaluationDate : Date</text><ellipse cx="283.5" cy="498.1328" fill="none" rx="3" ry="3" style="stroke:#038048;stroke-width:1.0;"/><text fill="#000000" font-family="sans-serif" font-size="14" lengthAdjust="spacing" textLength="154" x="292.5" y="501.4795">EvaluatedBy : Integer</text><line style="stroke:#181818;stroke-width:0.5;" x1="273.5" x2="461.5" y1="508.7813" y2="508.7813"/></g><!--class Personnel--><g id="elem_Personnel"><rect codeLine="25" fill="#F1F1F1" height="96.8906" id="Personnel" rx="2.5" ry="2.5" style="stroke:#181818;stroke-width:0.5;" width="195" x="372" y="7"/><ellipse cx="429.75" cy="23" fill="#ADD1B2" rx="11" ry="11" style="stroke:#181818;stroke-width:1.0;"/><path d="M432.0938,18.6719 C431.1563,18.2344 430.5625,18.0938 429.6875,18.0938 C427.0625,18.0938 425.0625,20.1719 425.0625,22.8906 L425.0625,24.0156 C425.0625,26.5938 427.1719,28.4844 430.0625,28.4844 C431.2813,28.4844 432.4375,28.1875 433.1875,27.6406 C433.7656,27.2344 434.0938,26.7813 434.0938,26.3906 C434.0938,25.9375 433.7031,25.5469 433.2344,25.5469 C433.0156,25.5469 432.8125,25.625 432.625,25.8125 C432.1719,26.2969 432.1719,26.2969 431.9844,26.3906 C431.5625,26.6563 430.875,26.7813 430.1094,26.7813 C428.0625,26.7813 426.7656,25.6875 426.7656,23.9844 L426.7656,22.8906 C426.7656,21.1094 428.0156,19.7969 429.75,19.7969 C430.3281,19.7969 430.9375,19.9531 431.4063,20.2031 C431.8906,20.4844 432.0625,20.7031 432.1563,21.1094 C432.2188,21.5156 432.25,21.6406 432.3906,21.7656 C432.5313,21.9063 432.7656,22.0156 432.9844,22.0156 C433.25,22.0156 433.5156,21.875 433.6875,21.6563 C433.7969,21.5 433.8281,21.3125 433.8281,20.8906 L433.8281,19.4688 C433.8281,19.0313 433.8125,18.9063 433.7188,18.75 C433.5625,18.4844 433.2813,18.3438 432.9844,18.3438 C432.6875,18.3438 432.4844,18.4375 432.2656,18.75 L432.0938,18.6719 Z " fill="#000000"/><text fill="#000000" font-family="sans-serif" font-size="14" lengthAdjust="spacing" textLength="71" x="450.25" y="27.8467">Personnel</text><line style="stroke:#181818;stroke-width:0.5;" x1="373" x2="566" y1="39" y2="39"/><ellipse cx="383" cy="52.6484" fill="none" rx="3" ry="3" style="stroke:#038048;stroke-width:1.0;"/><text fill="#000000" font-family="sans-serif" font-size="14" lengthAdjust="spacing" textLength="152" x="392" y="55.9951">PersonnelID : Integer</text><ellipse cx="383" cy="68.9453" fill="none" rx="3" ry="3" style="stroke:#038048;stroke-width:1.0;"/><text fill="#000000" font-family="sans-serif" font-size="14" lengthAdjust="spacing" textLength="169" x="392" y="72.292">PersonnelName : String</text><ellipse cx="383" cy="85.2422" fill="none" rx="3" ry="3" style="stroke:#038048;stroke-width:1.0;"/><text fill="#000000" font-family="sans-serif" font-size="14" lengthAdjust="spacing" textLength="89" x="392" y="88.5889">Role : String</text><line style="stroke:#181818;stroke-width:0.5;" x1="373" x2="566" y1="95.8906" y2="95.8906"/></g><!--link MonitoringEvent to EvaluationResult--><g id="link_MonitoringEvent_EvaluationResult"><path codeLine="31" d="M367.5,294.11 C367.5,317.765 367.5,345.659 367.5,370.869 " fill="none" id="MonitoringEvent-EvaluationResult" style="stroke:#181818;stroke-width:1.0;"/><text fill="#000000" font-family="sans-serif" font-size="13" lengthAdjust="spacing" textLength="84" x="368.5" y="337.0669">evaluated by</text><text fill="#000000" font-family="sans-serif" font-size="13" lengthAdjust="spacing" textLength="8" x="358.9875" y="314.3875">1</text><text fill="#000000" font-family="sans-serif" font-size="13" lengthAdjust="spacing" textLength="10" x="357.0078" y="360.0161">M</text></g><!--link EvaluationCriterion to EvaluationResult--><g id="link_EvaluationCriterion_EvaluationResult"><path codeLine="32" d="M179.632,286.188 C209.75,311.327 247.323,342.689 280.936,370.745 " fill="none" id="EvaluationCriterion-EvaluationResult" style="stroke:#181818;stroke-width:1.0;"/><text fill="#000000" font-family="sans-serif" font-size="13" lengthAdjust="spacing" textLength="38" x="246.5" y="337.0669">bases</text><text fill="#000000" font-family="sans-serif" font-size="13" lengthAdjust="spacing" textLength="8" x="178.7716" y="305.8214">1</text><text fill="#000000" font-family="sans-serif" font-size="13" lengthAdjust="spacing" textLength="10" x="261.9227" y="359.8799">M</text></g><!--link Personnel to MonitoringEvent--><g id="link_Personnel_MonitoringEvent"><path codeLine="33" d="M442.434,104.264 C429.095,127.803 412.932,156.326 399.037,180.847 " fill="none" id="Personnel-MonitoringEvent" style="stroke:#181818;stroke-width:1.0;"/><text fill="#000000" font-family="sans-serif" font-size="13" lengthAdjust="spacing" textLength="58" x="425.5" y="147.0669">conducts</text><text fill="#000000" font-family="sans-serif" font-size="13" lengthAdjust="spacing" textLength="8" x="430.2595" y="123.9076">1</text><text fill="#000000" font-family="sans-serif" font-size="13" lengthAdjust="spacing" textLength="10" x="392.2712" y="170.0919">M</text></g><!--link Personnel to EvaluationResult--><g id="link_Personnel_EvaluationResult"><path codeLine="34" d="M486.045,104.388 C488.728,114.078 491.088,124.278 492.5,134 C498.953,178.422 515.984,136.912 479.5,294 C474.44,315.788 473.29,321.991 461.5,341 C455.217,351.13 447.849,361.156 440.051,370.74 " fill="none" id="Personnel-EvaluationResult" style="stroke:#181818;stroke-width:1.0;"/><text fill="#000000" font-family="sans-serif" font-size="13" lengthAdjust="spacing" textLength="63" x="502.5" y="242.0669">evaluates</text><text fill="#000000" font-family="sans-serif" font-size="13" lengthAdjust="spacing" textLength="8" x="479.7307" y="124.0483">1</text><text fill="#000000" font-family="sans-serif" font-size="13" lengthAdjust="spacing" textLength="10" x="436.7006" y="359.8744">M</text></g><!--SRC=[VPBFRiCW3CRlF8MNQzN3hhbrIJPLMgigxGjGubL8r4n0AbLJtxrXMGZBFow1xxFnpmul5Nv9GYYBxBJPVtmM81Itbh5Us6cIJXj9b-A6vE27GRDMluTj3YbioU45JIJl-HKRu-XyLgJdt7dTVrerqrJLmc7rTeykUiJbYnjNDNTIKsQaGzDiEeGWZ362DO4Il1ojCFBRtzs7p1GlqTOgDD-UPhfVe9dAw2eSXJOUzLrfxeRcQ79_rjBa3cYi9aBLKGTXZ16iYNcLMk6_-GnVHFAQm7eDoIuP3om5x4ZXV6TJVtCv_SmjMjRt4aKFEL8GxNkQYL-0iqy0]--></g></svg>