<?xml version="1.0" encoding="us-ascii" standalone="no"?><svg xmlns="http://www.w3.org/2000/svg" xmlns:xlink="http://www.w3.org/1999/xlink" contentStyleType="text/css" height="284px" preserveAspectRatio="none" style="width:699px;height:284px;background:#FFFFFF;" version="1.1" viewBox="0 0 699 284" width="699px" zoomAndPan="magnify"><defs/><g><!--class Region--><g id="elem_Region"><rect codeLine="3" fill="#F1F1F1" height="96.8906" id="Region" rx="2.5" ry="2.5" style="stroke:#181818;stroke-width:0.5;" width="199" x="223" y="7"/><ellipse cx="293.25" cy="23" fill="#ADD1B2" rx="11" ry="11" style="stroke:#181818;stroke-width:1.0;"/><path d="M295.5938,18.6719 C294.6563,18.2344 294.0625,18.0938 293.1875,18.0938 C290.5625,18.0938 288.5625,20.1719 288.5625,22.8906 L288.5625,24.0156 C288.5625,26.5938 290.6719,28.4844 293.5625,28.4844 C294.7813,28.4844 295.9375,28.1875 296.6875,27.6406 C297.2656,27.2344 297.5938,26.7813 297.5938,26.3906 C297.5938,25.9375 297.2031,25.5469 296.7344,25.5469 C296.5156,25.5469 296.3125,25.625 296.125,25.8125 C295.6719,26.2969 295.6719,26.2969 295.4844,26.3906 C295.0625,26.6563 294.375,26.7813 293.6094,26.7813 C291.5625,26.7813 290.2656,25.6875 290.2656,23.9844 L290.2656,22.8906 C290.2656,21.1094 291.5156,19.7969 293.25,19.7969 C293.8281,19.7969 294.4375,19.9531 294.9063,20.2031 C295.3906,20.4844 295.5625,20.7031 295.6563,21.1094 C295.7188,21.5156 295.75,21.6406 295.8906,21.7656 C296.0313,21.9063 296.2656,22.0156 296.4844,22.0156 C296.75,22.0156 297.0156,21.875 297.1875,21.6563 C297.2969,21.5 297.3281,21.3125 297.3281,20.8906 L297.3281,19.4688 C297.3281,19.0313 297.3125,18.9063 297.2188,18.75 C297.0625,18.4844 296.7813,18.3438 296.4844,18.3438 C296.1875,18.3438 295.9844,18.4375 295.7656,18.75 L295.5938,18.6719 Z " fill="#000000"/><text fill="#000000" font-family="sans-serif" font-size="14" lengthAdjust="spacing" textLength="50" x="313.75" y="27.8467">Region</text><line style="stroke:#181818;stroke-width:0.5;" x1="224" x2="421" y1="39" y2="39"/><ellipse cx="234" cy="52.6484" fill="none" rx="3" ry="3" style="stroke:#038048;stroke-width:1.0;"/><text fill="#000000" font-family="sans-serif" font-size="14" lengthAdjust="spacing" textLength="131" x="243" y="55.9951">RegionID : Integer</text><ellipse cx="234" cy="68.9453" fill="none" rx="3" ry="3" style="stroke:#038048;stroke-width:1.0;"/><text fill="#000000" font-family="sans-serif" font-size="14" lengthAdjust="spacing" textLength="148" x="243" y="72.292">RegionName : String</text><ellipse cx="234" cy="85.2422" fill="none" rx="3" ry="3" style="stroke:#038048;stroke-width:1.0;"/><text fill="#000000" font-family="sans-serif" font-size="14" lengthAdjust="spacing" textLength="173" x="243" y="88.5889">Coordinates : Geometry</text><line style="stroke:#181818;stroke-width:0.5;" x1="224" x2="421" y1="95.8906" y2="95.8906"/></g><!--class ClimateData--><g id="elem_ClimateData"><rect codeLine="9" fill="#F1F1F1" height="96.8906" id="ClimateData" rx="2.5" ry="2.5" style="stroke:#181818;stroke-width:0.5;" width="197" x="7" y="181"/><ellipse cx="56.25" cy="197" fill="#ADD1B2" rx="11" ry="11" style="stroke:#181818;stroke-width:1.0;"/><path d="M58.5938,192.6719 C57.6563,192.2344 57.0625,192.0938 56.1875,192.0938 C53.5625,192.0938 51.5625,194.1719 51.5625,196.8906 L51.5625,198.0156 C51.5625,200.5938 53.6719,202.4844 56.5625,202.4844 C57.7813,202.4844 58.9375,202.1875 59.6875,201.6406 C60.2656,201.2344 60.5938,200.7813 60.5938,200.3906 C60.5938,199.9375 60.2031,199.5469 59.7344,199.5469 C59.5156,199.5469 59.3125,199.625 59.125,199.8125 C58.6719,200.2969 58.6719,200.2969 58.4844,200.3906 C58.0625,200.6563 57.375,200.7813 56.6094,200.7813 C54.5625,200.7813 53.2656,199.6875 53.2656,197.9844 L53.2656,196.8906 C53.2656,195.1094 54.5156,193.7969 56.25,193.7969 C56.8281,193.7969 57.4375,193.9531 57.9063,194.2031 C58.3906,194.4844 58.5625,194.7031 58.6563,195.1094 C58.7188,195.5156 58.75,195.6406 58.8906,195.7656 C59.0313,195.9063 59.2656,196.0156 59.4844,196.0156 C59.75,196.0156 60.0156,195.875 60.1875,195.6563 C60.2969,195.5 60.3281,195.3125 60.3281,194.8906 L60.3281,193.4688 C60.3281,193.0313 60.3125,192.9063 60.2188,192.75 C60.0625,192.4844 59.7813,192.3438 59.4844,192.3438 C59.1875,192.3438 58.9844,192.4375 58.7656,192.75 L58.5938,192.6719 Z " fill="#000000"/><text fill="#000000" font-family="sans-serif" font-size="14" lengthAdjust="spacing" textLength="90" x="76.75" y="201.8467">ClimateData</text><line style="stroke:#181818;stroke-width:0.5;" x1="8" x2="203" y1="213" y2="213"/><ellipse cx="18" cy="226.6484" fill="none" rx="3" ry="3" style="stroke:#038048;stroke-width:1.0;"/><text fill="#000000" font-family="sans-serif" font-size="14" lengthAdjust="spacing" textLength="171" x="27" y="229.9951">ClimateDataID : Integer</text><ellipse cx="18" cy="242.9453" fill="none" rx="3" ry="3" style="stroke:#038048;stroke-width:1.0;"/><text fill="#000000" font-family="sans-serif" font-size="14" lengthAdjust="spacing" textLength="144" x="27" y="246.292">Temperature : Float</text><ellipse cx="18" cy="259.2422" fill="none" rx="3" ry="3" style="stroke:#038048;stroke-width:1.0;"/><text fill="#000000" font-family="sans-serif" font-size="14" lengthAdjust="spacing" textLength="143" x="27" y="262.5889">Precipitation : Float</text><line style="stroke:#181818;stroke-width:0.5;" x1="8" x2="203" y1="269.8906" y2="269.8906"/></g><!--class SoilData--><g id="elem_SoilData"><rect codeLine="15" fill="#F1F1F1" height="96.8906" id="SoilData" rx="2.5" ry="2.5" style="stroke:#181818;stroke-width:0.5;" width="167" x="239" y="181"/><ellipse cx="288.25" cy="197" fill="#ADD1B2" rx="11" ry="11" style="stroke:#181818;stroke-width:1.0;"/><path d="M290.5938,192.6719 C289.6563,192.2344 289.0625,192.0938 288.1875,192.0938 C285.5625,192.0938 283.5625,194.1719 283.5625,196.8906 L283.5625,198.0156 C283.5625,200.5938 285.6719,202.4844 288.5625,202.4844 C289.7813,202.4844 290.9375,202.1875 291.6875,201.6406 C292.2656,201.2344 292.5938,200.7813 292.5938,200.3906 C292.5938,199.9375 292.2031,199.5469 291.7344,199.5469 C291.5156,199.5469 291.3125,199.625 291.125,199.8125 C290.6719,200.2969 290.6719,200.2969 290.4844,200.3906 C290.0625,200.6563 289.375,200.7813 288.6094,200.7813 C286.5625,200.7813 285.2656,199.6875 285.2656,197.9844 L285.2656,196.8906 C285.2656,195.1094 286.5156,193.7969 288.25,193.7969 C288.8281,193.7969 289.4375,193.9531 289.9063,194.2031 C290.3906,194.4844 290.5625,194.7031 290.6563,195.1094 C290.7188,195.5156 290.75,195.6406 290.8906,195.7656 C291.0313,195.9063 291.2656,196.0156 291.4844,196.0156 C291.75,196.0156 292.0156,195.875 292.1875,195.6563 C292.2969,195.5 292.3281,195.3125 292.3281,194.8906 L292.3281,193.4688 C292.3281,193.0313 292.3125,192.9063 292.2188,192.75 C292.0625,192.4844 291.7813,192.3438 291.4844,192.3438 C291.1875,192.3438 290.9844,192.4375 290.7656,192.75 L290.5938,192.6719 Z " fill="#000000"/><text fill="#000000" font-family="sans-serif" font-size="14" lengthAdjust="spacing" textLength="60" x="308.75" y="201.8467">SoilData</text><line style="stroke:#181818;stroke-width:0.5;" x1="240" x2="405" y1="213" y2="213"/><ellipse cx="250" cy="226.6484" fill="none" rx="3" ry="3" style="stroke:#038048;stroke-width:1.0;"/><text fill="#000000" font-family="sans-serif" font-size="14" lengthAdjust="spacing" textLength="141" x="259" y="229.9951">SoilDataID : Integer</text><ellipse cx="250" cy="242.9453" fill="none" rx="3" ry="3" style="stroke:#038048;stroke-width:1.0;"/><text fill="#000000" font-family="sans-serif" font-size="14" lengthAdjust="spacing" textLength="119" x="259" y="246.292">SoilType : String</text><ellipse cx="250" cy="259.2422" fill="none" rx="3" ry="3" style="stroke:#038048;stroke-width:1.0;"/><text fill="#000000" font-family="sans-serif" font-size="14" lengthAdjust="spacing" textLength="106" x="259" y="262.5889">Fertility : Float</text><line style="stroke:#181818;stroke-width:0.5;" x1="240" x2="405" y1="269.8906" y2="269.8906"/></g><!--class WaterResourceData--><g id="elem_WaterResourceData"><rect codeLine="21" fill="#F1F1F1" height="96.8906" id="WaterResourceData" rx="2.5" ry="2.5" style="stroke:#181818;stroke-width:0.5;" width="251" x="441" y="181"/><ellipse cx="490.25" cy="197" fill="#ADD1B2" rx="11" ry="11" style="stroke:#181818;stroke-width:1.0;"/><path d="M492.5938,192.6719 C491.6563,192.2344 491.0625,192.0938 490.1875,192.0938 C487.5625,192.0938 485.5625,194.1719 485.5625,196.8906 L485.5625,198.0156 C485.5625,200.5938 487.6719,202.4844 490.5625,202.4844 C491.7813,202.4844 492.9375,202.1875 493.6875,201.6406 C494.2656,201.2344 494.5938,200.7813 494.5938,200.3906 C494.5938,199.9375 494.2031,199.5469 493.7344,199.5469 C493.5156,199.5469 493.3125,199.625 493.125,199.8125 C492.6719,200.2969 492.6719,200.2969 492.4844,200.3906 C492.0625,200.6563 491.375,200.7813 490.6094,200.7813 C488.5625,200.7813 487.2656,199.6875 487.2656,197.9844 L487.2656,196.8906 C487.2656,195.1094 488.5156,193.7969 490.25,193.7969 C490.8281,193.7969 491.4375,193.9531 491.9063,194.2031 C492.3906,194.4844 492.5625,194.7031 492.6563,195.1094 C492.7188,195.5156 492.75,195.6406 492.8906,195.7656 C493.0313,195.9063 493.2656,196.0156 493.4844,196.0156 C493.75,196.0156 494.0156,195.875 494.1875,195.6563 C494.2969,195.5 494.3281,195.3125 494.3281,194.8906 L494.3281,193.4688 C494.3281,193.0313 494.3125,192.9063 494.2188,192.75 C494.0625,192.4844 493.7813,192.3438 493.4844,192.3438 C493.1875,192.3438 492.9844,192.4375 492.7656,192.75 L492.5938,192.6719 Z " fill="#000000"/><text fill="#000000" font-family="sans-serif" font-size="14" lengthAdjust="spacing" textLength="144" x="510.75" y="201.8467">WaterResourceData</text><line style="stroke:#181818;stroke-width:0.5;" x1="442" x2="691" y1="213" y2="213"/><ellipse cx="452" cy="226.6484" fill="none" rx="3" ry="3" style="stroke:#038048;stroke-width:1.0;"/><text fill="#000000" font-family="sans-serif" font-size="14" lengthAdjust="spacing" textLength="225" x="461" y="229.9951">WaterResourceDataID : Integer</text><ellipse cx="452" cy="242.9453" fill="none" rx="3" ry="3" style="stroke:#038048;stroke-width:1.0;"/><text fill="#000000" font-family="sans-serif" font-size="14" lengthAdjust="spacing" textLength="131" x="461" y="246.292">WaterLevel : Float</text><ellipse cx="452" cy="259.2422" fill="none" rx="3" ry="3" style="stroke:#038048;stroke-width:1.0;"/><text fill="#000000" font-family="sans-serif" font-size="14" lengthAdjust="spacing" textLength="151" x="461" y="262.5889">WaterQuality : String</text><line style="stroke:#181818;stroke-width:0.5;" x1="442" x2="691" y1="269.8906" y2="269.8906"/></g><!--link Region to ClimateData--><g id="link_Region_ClimateData"><path codeLine="27" d="M262.342,104.183 C232.238,128.044 195.895,156.851 165.775,180.7241 " fill="none" id="Region-ClimateData" style="stroke:#181818;stroke-width:1.0;"/><text fill="#000000" font-family="sans-serif" font-size="13" lengthAdjust="spacing" textLength="23" x="222.5" y="147.0669">has</text><text fill="#000000" font-family="sans-serif" font-size="13" lengthAdjust="spacing" textLength="8" x="245.7208" y="123.8158">1</text><text fill="#000000" font-family="sans-serif" font-size="13" lengthAdjust="spacing" textLength="10" x="163.548" y="169.8941">M</text></g><!--link Region to SoilData--><g id="link_Region_SoilData"><path codeLine="28" d="M322.5,104.412 C322.5,128.268 322.5,157.024 322.5,180.8454 " fill="none" id="Region-SoilData" style="stroke:#181818;stroke-width:1.0;"/><text fill="#000000" font-family="sans-serif" font-size="13" lengthAdjust="spacing" textLength="23" x="323.5" y="147.0669">has</text><text fill="#000000" font-family="sans-serif" font-size="13" lengthAdjust="spacing" textLength="8" x="313.9625" y="124.0755">1</text><text fill="#000000" font-family="sans-serif" font-size="13" lengthAdjust="spacing" textLength="10" x="311.7969" y="170.0321">M</text></g><!--link Region to WaterResourceData--><g id="link_Region_WaterResourceData"><path codeLine="29" d="M390.144,104.183 C423.992,128.044 464.858,156.851 498.725,180.7241 " fill="none" id="Region-WaterResourceData" style="stroke:#181818;stroke-width:1.0;"/><text fill="#000000" font-family="sans-serif" font-size="13" lengthAdjust="spacing" textLength="23" x="452.5" y="147.0669">has</text><text fill="#000000" font-family="sans-serif" font-size="13" lengthAdjust="spacing" textLength="8" x="390.6962" y="123.8158">1</text><text fill="#000000" font-family="sans-serif" font-size="13" lengthAdjust="spacing" textLength="10" x="478.491" y="169.8941">M</text></g><!--SRC=[TP7DJiCm48JlUOebLzG3rzvG-gDAfO8q4kTLkeIL73jQRv0YnBlZ90qakFZccP6_dVNTXTxO4kJRh7WyxOzRA0rwdoI_GauLEmkV2OHpFzuE6rZ3mIfL97FzX3K5vwp2jXgDp3cvi4Kb7vmzkPfKkkHhZiWCro6mGSM9CvDYM45rGuBQIa_R6OSw6iz29JUigFt8axLWdHsREMYwnvJUARhcRw4TYR9XxMw__ngcbfoyQwLSD8gCc3X4ZlH1Pbbhq5zQl5Alq_JOyM_IXnHMAqYVqiKgr_2E_aRcPmN_1U8EG_8R]--></g></svg>